<svg width="256" height="62" viewBox="0 0 256 62" fill="none" xmlns="http://www.w3.org/2000/svg">
<path d="M34.1817 55.0086C33.8706 55.1304 33.6678 55.3332 33.6678 55.7525V57.5512C33.1539 57.7271 31.7474 58.268 28.9207 58.268C26.5811 58.268 25.8508 57.7405 25.8102 57.5512L25.188 54.1296C25.188 54.1296 26.1347 54.995 29.5294 54.7788C33.6137 54.5217 37.8467 52.101 37.8467 54.684V56.1988C34.655 56.1853 34.1817 55.1573 34.1817 55.0086ZM59.3233 56.1853V54.6706C59.3233 52.101 63.5564 54.5083 67.6408 54.7652C71.0353 54.9816 71.982 54.116 71.982 54.116L71.36 57.5512C71.3328 57.7405 70.589 58.268 68.2493 58.268C65.4364 58.268 64.0297 57.7271 63.5023 57.5512V55.7525C63.5023 55.3468 63.2994 55.1439 62.9884 55.0086C63.0019 55.1573 62.5286 56.1853 59.3233 56.1853ZM48.585 57.7405C55.1714 57.7405 61.8524 57.4025 62.7179 56.4017C62.7855 56.3205 62.8125 56.4017 62.8125 56.4692V59.9585C62.8125 60.9729 55.9152 61.5679 48.5715 61.5679C41.2278 61.5679 34.3304 60.9729 34.3304 59.9585V56.4692C34.3304 56.4151 34.3575 56.334 34.4252 56.4017C35.3312 57.3889 42.0122 57.7405 48.585 57.7405Z" fill="black"/>
<path d="M69.4008 17.2659C69.4008 17.2898 69.5923 17.5053 69.8197 17.7327C70.4422 18.3552 70.3943 19.1932 69.7719 18.6066C69.1015 17.9841 67.8326 17.8046 67.1982 18.2475C66.9588 18.4151 66.9588 18.4151 67.27 18.4151C67.4496 18.4151 67.7249 18.4749 67.8685 18.5467C68.1079 18.6425 68.1439 18.7383 68.1079 19.0854L68.0601 19.4924L67.3179 19.4804C66.4799 19.4565 65.9293 19.6839 65.6181 20.1628C65.4026 20.474 65.4744 20.7134 65.7138 20.474C65.9293 20.2585 66.7313 20.2944 66.8151 20.5219C66.9348 20.8212 66.8989 20.9289 66.6954 20.9289C66.5996 20.9289 66.2286 21.2042 65.8694 21.5394C65.235 22.1379 64.8759 22.7724 65.1033 22.904C65.1632 22.9519 65.2111 22.928 65.2111 22.8562C65.2111 22.7843 65.3547 22.6407 65.5223 22.533C65.8096 22.3414 65.8455 22.3414 66.2645 22.5689C66.6116 22.7604 66.851 22.8083 67.3897 22.7604C68.0481 22.7005 68.084 22.7125 68.2037 23.0118C68.2636 23.1913 68.503 23.4427 68.7424 23.5744C69.0417 23.754 69.1973 23.9575 69.2811 24.2807C69.4008 24.7475 69.9873 25.358 70.3105 25.358C70.4063 25.358 70.4781 25.4298 70.4781 25.5136C70.4781 25.7291 69.9155 26.5431 69.3649 27.1177L68.8741 27.6205L69.3409 27.824C69.6162 27.9317 69.9754 27.9916 70.2028 27.9557C70.7056 27.8719 70.7295 28.1232 70.2986 28.7577C70.131 28.9971 69.9993 29.2485 69.9993 29.3083C69.9993 29.3682 70.3225 29.452 70.7175 29.4999C71.3879 29.5717 71.4358 29.5956 71.4358 29.8949C71.4358 30.0625 71.328 30.3857 71.1964 30.5892L70.957 30.9842H71.5076C72.142 30.9842 72.4293 30.8645 73.0039 30.3019L73.4349 29.8949L73.5785 30.5652C73.7701 31.4271 73.6264 31.6785 72.6089 32.1693C72.1899 32.3728 71.8787 32.5404 71.9146 32.5404C71.9505 32.5524 72.4293 32.6242 72.992 32.708L74.0095 32.8516L72.992 33.1988C72.2139 33.4502 71.735 33.534 70.957 33.5459L69.9395 33.5579L69.9035 33.0432C69.8796 32.684 69.9395 32.4087 70.107 32.1334C70.4542 31.5708 70.4183 31.2595 69.9275 30.5054C69.4846 29.8231 69.2092 29.5597 68.9339 29.5477C68.8142 29.5477 68.8142 29.6076 68.9698 29.847C69.2212 30.2181 69.2092 30.5054 68.9579 30.685C68.7903 30.8047 68.7544 30.9962 68.7783 31.5588C68.7903 31.9538 68.7544 32.313 68.6945 32.3489C68.5389 32.4446 68.4551 31.8581 68.5269 31.2236C68.5987 30.5652 68.2516 30.0266 67.7488 30.0266C67.5693 30.0266 67.3179 29.9428 67.1982 29.847C67.0665 29.7512 66.7433 29.6675 66.4799 29.6675H65.9891L66.3842 29.9787C66.7433 30.266 66.7792 30.3378 66.7074 30.7328C66.6595 31.0441 66.7074 31.2715 66.8869 31.5468C67.0186 31.7623 67.1742 31.9419 67.2341 31.9419C67.3658 31.9419 67.7608 32.8995 67.665 32.9953C67.5453 33.115 67.0306 32.5284 66.9588 32.1813C66.875 31.7384 66.4919 31.3433 66.1448 31.3433C65.9891 31.3433 65.642 31.2595 65.3667 31.1638C65.0794 31.068 64.6963 31.0201 64.4928 31.056C64.0738 31.1518 63.8943 31.3433 64.2414 31.3433C64.6125 31.3433 65.2111 31.9179 65.2111 32.289C65.2111 32.7319 65.5223 33.1389 65.8814 33.1389C66.049 33.1389 66.3722 33.2227 66.6116 33.3185C66.9348 33.4621 67.0186 33.534 66.9109 33.6417C66.8151 33.7375 66.6356 33.7255 66.2286 33.5699C65.7258 33.3664 65.6659 33.3664 65.3906 33.5459C65.223 33.6537 65.0913 33.8213 65.0913 33.917C65.0913 34.0128 65.0076 34.0966 64.9118 34.0966C64.6724 34.0966 63.7746 34.9106 63.7746 35.1261C63.7746 35.3415 63.8344 35.3415 64.2055 35.1021C64.5527 34.8627 65.3786 34.9585 65.7138 35.2577C65.8814 35.4014 66.0969 35.4373 66.7074 35.3894C67.7369 35.3056 68.2277 35.4253 68.7544 35.8922C69.0895 36.1795 69.2571 36.2513 69.4965 36.1914C69.7958 36.1196 69.7958 36.1196 69.712 36.6942C69.6761 37.0054 69.5325 37.4603 69.4008 37.7117C69.2092 38.0948 69.1973 38.1905 69.329 38.2384C69.5803 38.3342 70.4901 38.0589 70.9929 37.7357L71.4358 37.4484L71.5555 37.7476C71.6273 37.9272 71.6752 38.1427 71.6752 38.2384C71.6752 38.5377 71.9385 38.418 72.4892 37.8554C72.992 37.3526 73.0518 37.3287 73.1955 37.5202C73.3391 37.7237 73.9496 38.1666 74.0693 38.1666C74.1172 38.1666 74.213 37.987 74.2848 37.7596C74.5481 37.0294 74.7157 37.0054 75.3502 37.5681C76.2001 38.3222 76.2959 38.3462 76.5472 37.9631C76.7029 37.7357 76.7627 37.4005 76.7627 36.8259C76.7627 35.9281 76.9423 35.7844 77.0859 36.5745C77.2774 37.6878 77.852 38.3821 79.097 39.0045C79.8392 39.3756 80.8327 40.0699 80.737 40.1537C80.713 40.1777 80.4975 40.1417 80.2462 40.0699C79.9948 39.9981 79.7075 39.9742 79.6117 40.0101C79.4441 40.0819 79.4441 40.1178 79.6357 40.3213C79.8392 40.5488 79.8392 40.5488 79.504 40.453C79.3125 40.3931 78.9414 40.2495 78.678 40.1298C78.1393 39.9023 76.8106 39.8425 75.7213 40.0101C75.0629 40.1058 75.027 40.0939 74.6918 39.7707C74.5003 39.5791 74.3207 39.3397 74.2728 39.244C74.213 39.0883 74.189 39.0883 74.0813 39.244C73.9017 39.4953 73.9257 39.9622 74.1292 40.3572C74.2968 40.6804 74.2848 40.6804 73.8538 40.872C73.6144 40.9677 73.2433 41.2071 73.0398 41.4106C72.8363 41.6022 72.5131 41.8057 72.3216 41.8655L71.9745 41.9613L72.3575 42.1528C72.573 42.2606 72.9561 42.3563 73.2314 42.3563H73.7102L73.4708 42.8232C73.3391 43.0865 73.1236 43.3738 72.98 43.4816C72.573 43.7569 72.8124 43.9484 73.5187 43.8886L74.1292 43.8407L74.1172 44.7983C74.1172 45.337 74.0693 45.8517 74.0214 45.9595C73.9137 46.1869 72.8483 46.8453 72.166 47.0847C71.8787 47.1805 71.2443 47.2643 70.7654 47.2643C69.9993 47.2643 69.8676 47.2284 69.7599 47.0249C69.6881 46.8812 69.6641 46.6777 69.7 46.546C69.8197 46.163 69.4726 45.5285 69.0297 45.349C68.8022 45.2652 68.479 45.0617 68.3114 44.9061C67.9164 44.5469 67.2102 44.3674 66.7792 44.523L66.4799 44.6427L66.9468 44.8582C67.4017 45.0617 67.7249 45.4926 67.7249 45.8877C67.7249 46.0912 67.5334 46.1271 67.4256 45.9595C67.3299 45.8039 65.4744 45.8039 65.1632 45.9714C64.7801 46.163 64.3731 46.57 64.3731 46.7495C64.3731 46.8692 64.433 46.8812 64.6006 46.7854C64.9238 46.6179 65.6061 46.6298 65.8335 46.8214C66.1328 47.0488 66.2046 47.4438 65.9532 47.4678C64.5527 47.5875 63.8225 47.8628 63.4274 48.4613C63.2479 48.7367 63.2479 48.7486 63.4753 48.6409C63.607 48.581 63.9661 48.5212 64.2773 48.5212C64.7322 48.5212 64.8878 48.581 65.1392 48.8564C65.3068 49.0359 65.4984 49.1796 65.5821 49.1796C65.654 49.1796 65.5821 49.2873 65.4026 49.431C64.9477 49.7901 64.6125 50.5203 64.6125 51.1428C64.6125 51.8131 64.7921 51.9448 64.9716 51.3941C65.0435 51.1667 65.1273 50.9752 65.1392 50.9752C65.1632 50.9752 65.3427 51.035 65.5582 51.1068C66.049 51.2864 66.5039 51.0949 66.8271 50.5801C67.0306 50.2689 67.1503 50.209 67.4256 50.233C67.6291 50.245 68.2037 50.2809 68.7065 50.2928C69.3409 50.3168 69.7 50.3886 69.8437 50.5203C70.514 51.1068 71.4956 51.2744 71.9026 50.8674C72.0343 50.7358 72.2019 50.4125 72.2737 50.1372C72.3575 49.814 72.5012 49.6105 72.6688 49.5507C73.0159 49.419 73.1356 49.5028 72.992 49.7781C72.8124 50.1253 72.8483 51.0709 73.0638 51.5258C73.1715 51.7533 73.399 52.0525 73.5785 52.1842L73.8898 52.4356L73.9257 52.1004C73.9855 51.4061 74.0813 51.2146 74.4165 51.035C74.7636 50.8555 74.7756 50.8674 74.9073 51.2625C75.1347 51.9687 75.7811 52.3757 76.4036 52.2201C76.631 52.1603 76.6909 52.0884 76.631 51.9448C76.4754 51.5737 76.4395 50.9991 76.5712 50.7597C76.7029 50.5203 76.7268 50.5203 77.1458 50.6998C77.6845 50.9153 78.666 50.8555 78.9414 50.5921C79.097 50.4245 79.085 50.3886 78.7139 50.2689C78.283 50.1253 77.7922 49.6823 77.5528 49.2155C77.3014 48.7127 77.3972 48.0065 77.8401 47.2164C78.3189 46.3545 78.3548 45.9595 78.0077 45.3849C77.5408 44.6307 77.7563 43.7569 78.4865 43.3858C79.1568 43.0267 80.8926 42.907 80.8926 43.2182C80.8926 43.2781 81.0243 43.4456 81.1679 43.6013C81.4313 43.8526 81.4552 43.9843 81.4432 44.9659C81.4432 45.5644 81.4791 46.0912 81.527 46.139C81.5749 46.1869 81.7425 46.0792 81.8981 45.9116C82.341 45.4328 82.4488 45.5166 82.2572 46.151C82.0777 46.7256 82.1375 47.6832 82.341 47.8149C82.4009 47.8389 82.6044 47.6952 82.7959 47.4797C83.1909 47.0368 83.3585 47.0727 83.167 47.5516C82.9635 48.1142 83.0473 49.419 83.2987 49.419C83.3466 49.419 83.5381 49.2873 83.7176 49.1197C83.8972 48.9521 84.0887 48.8205 84.1366 48.8205C84.1965 48.8205 84.2444 49.0718 84.2444 49.395C84.2444 49.7781 84.3521 50.1492 84.5676 50.5562C84.9506 51.2744 84.9865 52.1722 84.6873 53.07C84.4598 53.7404 83.6219 54.8417 83.0593 55.1888L82.7001 55.4163L82.6283 55.0811C82.5086 54.5544 82.4009 54.3988 81.958 54.1833C81.5629 53.9798 81.5031 53.9798 80.8327 54.1953C79.923 54.4586 79.6117 54.6262 79.4561 54.9255C79.3364 55.1409 79.3723 55.1529 79.923 55.0811C80.4497 55.0212 80.5694 55.0452 80.9045 55.3325L81.2876 55.6557L80.6891 55.5719C80.0307 55.4881 80.0905 55.4522 79.3244 56.3859C78.9773 56.8168 78.7379 57.3914 78.7379 57.8224C78.7379 58.1336 78.9174 58.0857 79.073 57.7386C79.2765 57.2957 79.8152 57.0682 80.318 57.2238C80.6651 57.3316 80.8208 57.3076 81.3116 57.0802C81.8622 56.8288 82.7839 56.4817 82.8917 56.4817C82.9156 56.4817 82.9036 56.5295 82.8677 56.6014C82.8318 56.6612 82.4966 56.8049 82.1375 56.9126C81.4791 57.1041 81.2038 57.4034 81.3355 57.7745C81.3714 57.8463 81.3116 58.1336 81.2038 58.397C80.9644 58.9835 80.9644 59.4743 81.1799 59.7736C81.3235 59.9771 81.3475 59.9651 81.4193 59.5701C81.5151 59.0673 81.7305 58.8518 82.4607 58.5406C82.8438 58.373 83.1431 58.1336 83.3825 57.7745C83.586 57.4872 83.8493 57.164 83.969 57.0682C84.0887 56.9725 84.0289 57.0802 83.8493 57.2957C83.4663 57.7745 83.4543 57.9421 83.7775 58.9356C84.0289 59.7137 84.5316 60.3123 84.9267 60.3123C85.0943 60.3123 85.0943 60.2763 84.9027 60.0728C84.7591 59.9172 84.6873 59.6539 84.6992 59.2948C84.6992 58.8399 84.7711 58.6962 85.1302 58.361C85.3696 58.1336 85.5611 57.8343 85.5611 57.6907C85.5611 57.2837 85.7886 56.9605 86.0639 56.9605C86.2075 56.9605 86.423 56.8767 86.5427 56.769C86.7342 56.5774 86.8061 56.5774 87.4525 56.769C87.8355 56.8767 88.3503 56.9605 88.6017 56.9605H89.0446L88.7333 56.5415C88.5538 56.3141 88.3623 55.943 88.3144 55.7036L88.2186 55.2846H88.7573C89.3558 55.2846 89.8945 55.0452 90.1578 54.6621C90.4451 54.2671 90.3973 54.2072 89.8346 54.2072C89.2241 54.2072 88.8291 53.9559 88.6017 53.4172C88.3503 52.8306 88.3862 52.7708 88.8171 52.9024C89.3199 53.0461 89.703 53.0341 90.2536 52.8905C90.6965 52.7588 91.4267 52.2441 91.4267 52.0525C91.4267 52.0046 91.1993 51.9208 90.924 51.8849C90.6367 51.8371 90.086 51.6336 89.691 51.4061C88.9847 51.0111 88.9728 51.0111 88.9129 50.4006C88.865 49.8739 88.8052 49.7542 88.4341 49.5148C87.8116 49.0958 87.6919 48.7726 87.7877 47.8628C87.9193 46.6897 87.8715 46.0792 87.6081 45.6363C87.3447 45.1934 87.3328 45.1934 88.2665 45.0497C88.7094 44.9779 89.4995 44.6307 90.4332 44.0801C90.7923 43.8766 90.8521 43.8646 91.1514 44.0322C91.5943 44.2836 91.7499 44.7864 91.4866 45.1814C91.307 45.4687 91.2232 45.4926 90.6965 45.4447C89.9903 45.3729 89.9304 45.5405 90.4571 46.0792C90.7444 46.3665 90.912 46.4263 91.3669 46.4263C91.8457 46.4263 91.9894 46.3665 92.2766 46.0552C92.7674 45.5285 92.935 44.8821 92.7555 44.2477C92.5999 43.7569 92.133 43.1703 91.7859 43.0506C91.6661 43.0147 91.7499 42.8711 92.0971 42.5718C92.6836 42.0331 93.1146 41.1832 93.1864 40.453C93.2702 39.5312 93.3301 39.3996 93.6892 39.2559C93.9884 39.1242 94.1082 39.1482 94.5271 39.3517C95.1376 39.6629 95.6165 39.6749 96.215 39.3637C96.7178 39.1123 97.3043 38.2743 96.8614 38.4659C96.7297 38.5137 96.3706 38.5856 96.0354 38.6095C95.5207 38.6574 95.3651 38.6215 94.9581 38.3342C94.4553 37.987 93.6533 37.8793 93.1744 38.0948C92.9829 38.1905 92.9709 38.1786 93.0787 37.9631C93.1505 37.8314 93.3779 37.6519 93.5695 37.5681C93.8927 37.4364 94.0004 37.4603 94.5391 37.7357C95.5805 38.2743 96.4185 38.0828 96.8853 37.185C97.1128 36.7421 97.017 36.6104 96.6818 36.9217C96.2748 37.2927 95.3172 37.2329 94.6947 36.8019C94.156 36.4428 93.3061 36.3351 92.5759 36.5266C92.2647 36.6104 92.2407 36.5984 92.3724 36.4428C92.5999 36.1795 93.3061 35.976 93.773 36.0478C94.0004 36.0837 94.3476 36.2513 94.5511 36.4189C95.1616 36.9336 96.3347 36.7421 96.7776 36.0478C97.005 35.7126 96.9213 35.5809 96.598 35.7605C96.1072 36.0239 95.2932 35.8323 94.8982 35.3535C94.3954 34.755 93.0906 34.5156 92.3724 34.8866C91.8816 35.138 91.7978 35.0183 92.2527 34.7071C92.8991 34.2402 93.8927 34.2283 94.3715 34.6831C95.2573 35.4971 96.4544 35.2936 96.8973 34.2402C97.1128 33.7255 97.029 33.6417 96.622 33.9649C96.0594 34.4078 95.5686 34.3001 94.8743 33.6178C94.2398 32.9833 93.7849 32.8157 93.0308 32.9354C92.6597 32.9953 92.6118 32.9833 92.6956 32.8038C92.7435 32.696 92.8034 32.2172 92.8273 31.7623C92.8752 31.0201 92.8393 30.8406 92.54 30.254L92.1929 29.5837L92.6717 29.0569C93.2582 28.3986 93.6652 27.5127 93.8328 26.5671C94.0244 25.5376 93.7371 24.2926 93.0906 23.335C92.8034 22.904 92.6238 22.497 92.6238 22.2696C92.6238 21.7668 93.0547 21.3 93.6054 21.2042C94.575 21.0486 95.0658 22.3654 94.2997 23.0836C94.1082 23.2632 93.9406 23.4547 93.9406 23.4906C93.9406 23.5265 94.2398 23.5624 94.5989 23.5624C95.1496 23.5624 95.3052 23.5145 95.6763 23.1913C96.215 22.7125 96.4185 22.0541 96.2389 21.4197C96.0235 20.7134 95.2693 19.9353 94.4194 19.5642C93.773 19.2769 93.5575 19.2291 92.8153 19.2769C91.8816 19.3248 90.9479 19.7079 90.3015 20.3064C89.4875 21.0725 89.1523 22.6048 89.5833 23.6223C89.679 23.8617 89.7389 24.0891 89.7149 24.1251C89.6072 24.2208 88.6855 23.5744 88.3503 23.1554C88.1707 22.916 87.8954 22.3893 87.7517 21.9823L87.5004 21.2282L87.237 21.8147C87.0096 22.3055 86.9737 22.5569 87.0215 23.3709C87.1053 24.8672 87.668 25.7411 89.0685 26.5311C89.4276 26.7346 89.7628 26.9501 89.7987 27.01C89.8346 27.0698 89.5713 27.0938 89.2122 27.0579C88.8291 27.0219 88.3982 27.0698 88.1947 27.1536C87.4285 27.4768 86.7702 28.638 86.9497 29.3562L87.0215 29.6675L87.5722 29.3442C88.3263 28.9013 89.0685 28.9013 89.8227 29.3802C91.0676 30.1463 91.4387 31.7982 90.6127 32.9474C89.4157 34.6233 89.3438 36.5745 90.4451 38.1546C91.3788 39.4953 91.4746 39.8425 91.1155 40.6565L90.912 41.0994L90.8162 40.6325C90.5888 39.6749 89.9304 39.1242 88.9967 39.1242C88.5777 39.1242 88.4101 39.1961 88.1468 39.4714C87.7398 39.9023 87.6919 40.5607 88.051 41.0276C88.3982 41.5064 88.6376 41.4944 88.5777 41.0036C88.5418 40.6804 88.5897 40.5488 88.7932 40.4051C89.5593 39.8784 90.3374 41.3508 89.8107 42.3443C89.6192 42.7394 88.9847 43.0746 88.458 43.0746C88.1468 43.0746 88.039 42.9668 87.632 42.3204C87.3687 41.9134 86.8659 41.2191 86.5068 40.8001C85.4534 39.5432 85.1422 39.1123 84.5676 38.1067C83.8733 36.9217 83.3346 35.4373 83.2269 34.4916L83.1431 33.7734L83.8014 33.8332C84.1606 33.8572 84.5436 33.8332 84.6514 33.7734C84.8309 33.6776 84.795 33.6178 84.388 33.3424C83.7296 32.9115 83.3466 32.1095 83.4543 31.3793C83.4902 31.068 83.5501 30.8047 83.562 30.7807C83.586 30.7568 83.7775 30.8286 83.993 30.9363C84.5197 31.1997 85.19 31.2715 85.609 31.1159L85.9562 30.9722L85.6928 30.6969C85.3097 30.2899 85.202 29.7034 85.3935 29.0689C85.609 28.3507 85.597 27.4888 85.3816 26.9501C85.1302 26.3516 85.1541 26.3396 85.6329 26.8065C86.0878 27.2374 86.435 27.824 86.5667 28.4105C86.7342 29.0929 86.9138 28.3986 86.854 27.2733C86.818 26.3875 86.7462 26.1002 86.411 25.4179C86.1836 24.975 85.7646 24.3525 85.4534 24.0413L84.9027 23.4667L85.2379 23.1674C85.4893 22.94 85.5611 22.7604 85.5611 22.3773V21.8865H85.0584H84.5556L84.9267 21.4915C85.4893 20.905 85.6808 20.4261 85.6808 19.6361C85.6808 18.9298 85.6808 18.9298 85.2858 18.858C85.0703 18.8221 84.6514 18.846 84.3641 18.8939C84.0648 18.9537 83.8134 18.9777 83.8014 18.9777C83.7895 18.9657 83.8493 18.7263 83.9211 18.451C83.993 18.1756 84.0169 17.9123 83.981 17.8764C83.9331 17.8285 83.7176 18.0081 83.4782 18.2594L83.0593 18.7143L83.0473 17.9602C83.0473 17.5532 82.9994 17.218 82.9276 17.218C82.8677 17.218 82.8079 17.3018 82.8079 17.4095C82.8079 17.5053 82.6403 17.7567 82.4488 17.9602C82.0896 18.3193 82.0657 18.3193 81.2158 18.2475C80.2342 18.1517 79.2646 18.3552 78.4625 18.8221C77.9358 19.1213 77.1937 19.2769 76.1043 19.3129C75.7332 19.3248 75.3143 19.3967 75.1706 19.4804C74.9073 19.6241 74.8953 19.6959 74.9192 20.7852C74.9312 21.4197 74.8953 22.09 74.8594 22.2576C74.7516 22.6287 75.0509 23.4427 75.2903 23.4427C75.3861 23.4427 75.4579 23.2751 75.4699 23.0118C75.4938 22.497 75.6734 22.2457 75.9727 22.3295C76.3078 22.4133 77.2535 21.9584 77.4809 21.5992C77.6605 21.3359 77.7204 21.312 77.876 21.4317C78.259 21.7549 78.4985 22.7005 78.283 23.0597C78.1393 23.2751 77.0261 23.1075 77.1099 22.8921C77.2176 22.6168 76.8585 22.7005 76.6191 22.9998C76.3557 23.335 75.422 23.8018 75.015 23.8018C74.596 23.8018 74.4284 23.5864 74.4284 23.0597C74.4284 22.2935 73.6863 21.7668 73.1117 22.126C72.968 22.2217 72.98 22.2696 73.1835 22.509C73.3271 22.6646 73.4708 23.0238 73.5067 23.323C73.6025 24.0652 73.9975 24.4004 74.7995 24.4004C75.3621 24.4004 75.3861 24.4123 75.2664 24.6398C75.0509 25.0468 75.1586 25.5256 75.4819 25.5735C75.7213 25.6094 75.7572 25.6812 75.7213 25.9805C75.6734 26.4474 75.8529 26.5192 76.2599 26.196C76.4994 26.0044 76.5832 25.8368 76.5832 25.5256C76.5832 25.0827 76.6789 25.0468 77.4091 25.1904C77.7204 25.2503 77.7802 25.3221 77.7802 25.6094C77.7802 25.9925 77.6007 26.1241 76.8824 26.2558C76.631 26.2917 76.2599 26.4114 76.0684 26.5192C75.7332 26.6868 75.7093 26.6748 75.1706 26.2319C74.8594 25.9685 74.3566 25.5855 74.0454 25.382C72.98 24.6518 72.2378 23.4667 71.8548 21.9225C71.6513 21.0725 71.6513 21.0486 71.8907 20.5458C72.3695 19.5523 72.2977 19.2889 71.34 18.3073C70.8971 17.8405 70.3824 17.4095 70.1908 17.3497C69.8676 17.218 69.4008 17.1701 69.4008 17.2659Z" fill="black"/>
<path d="M27.617 17.2659C27.617 17.2898 27.4255 17.5053 27.1981 17.7327C26.5756 18.3552 26.6235 19.1932 27.246 18.6066C27.9163 17.9841 29.1852 17.8046 29.8196 18.2475C30.0591 18.4151 30.0591 18.4151 29.7478 18.4151C29.5683 18.4151 29.2929 18.4749 29.1493 18.5467C28.9099 18.6425 28.874 18.7383 28.9099 19.0854L28.9578 19.4924L29.6999 19.4804C30.5379 19.4565 31.0885 19.6839 31.3998 20.1628C31.6152 20.474 31.5434 20.7134 31.304 20.474C31.0885 20.2585 30.2865 20.2944 30.2027 20.5219C30.083 20.8212 30.1189 20.9289 30.3224 20.9289C30.4182 20.9289 30.7893 21.2042 31.1484 21.5394C31.7828 22.1379 32.1419 22.7724 31.9145 22.904C31.8546 22.9519 31.8068 22.928 31.8068 22.8562C31.8068 22.7843 31.6631 22.6407 31.4955 22.533C31.2082 22.3414 31.1723 22.3414 30.7534 22.5689C30.4062 22.7604 30.1668 22.8083 29.6281 22.7604C28.9697 22.7005 28.9338 22.7125 28.8141 23.0118C28.7543 23.1913 28.5148 23.4427 28.2754 23.5744C27.9762 23.754 27.8205 23.9575 27.7368 24.2807C27.617 24.7475 27.0305 25.358 26.7073 25.358C26.6115 25.358 26.5397 25.4298 26.5397 25.5136C26.5397 25.7291 27.1023 26.5431 27.653 27.1177L28.1438 27.6205L27.6769 27.824C27.4016 27.9317 27.0425 27.9916 26.815 27.9557C26.3122 27.8719 26.2883 28.1232 26.7193 28.7577C26.8868 28.9971 27.0185 29.2485 27.0185 29.3083C27.0185 29.3682 26.6953 29.452 26.3003 29.4999C25.6299 29.5717 25.582 29.5956 25.582 29.8949C25.582 30.0625 25.6898 30.3857 25.8215 30.5892L26.0609 30.9842H25.5102C24.8758 30.9842 24.5885 30.8645 24.0139 30.3019L23.5829 29.8949L23.4393 30.5652C23.2478 31.4271 23.3914 31.6785 24.4089 32.1693C24.8279 32.3728 25.1391 32.5404 25.1032 32.5404C25.0673 32.5524 24.5885 32.6242 24.0259 32.708L23.0084 32.8516L24.0259 33.1988C24.8039 33.4502 25.2828 33.534 26.0609 33.5459L27.0784 33.5579L27.1143 33.0432C27.1382 32.684 27.0784 32.4087 26.9108 32.1334C26.5636 31.5708 26.5995 31.2595 27.0903 30.5054C27.5333 29.8231 27.8086 29.5597 28.0839 29.5477C28.2036 29.5477 28.2036 29.6076 28.048 29.847C27.7966 30.2181 27.8086 30.5054 28.06 30.685C28.2275 30.8047 28.2635 30.9962 28.2395 31.5588C28.2275 31.9538 28.2635 32.313 28.3233 32.3489C28.4789 32.4446 28.5627 31.8581 28.4909 31.2236C28.4191 30.5652 28.7662 30.0266 29.269 30.0266C29.4486 30.0266 29.6999 29.9428 29.8196 29.847C29.9513 29.7512 30.2745 29.6675 30.5379 29.6675H31.0287L30.6336 29.9787C30.2745 30.266 30.2386 30.3378 30.3104 30.7328C30.3583 31.0441 30.3104 31.2715 30.1309 31.5468C29.9992 31.7623 29.8436 31.9419 29.7837 31.9419C29.6521 31.9419 29.257 32.8995 29.3528 32.9953C29.4725 33.115 29.9872 32.5284 30.0591 32.1813C30.1428 31.7384 30.5259 31.3433 30.8731 31.3433C31.0287 31.3433 31.3758 31.2595 31.6511 31.1638C31.9384 31.068 32.3215 31.0201 32.525 31.056C32.944 31.1518 33.1235 31.3433 32.7764 31.3433C32.4053 31.3433 31.8068 31.9179 31.8068 32.289C31.8068 32.7319 31.4955 33.1389 31.1364 33.1389C30.9688 33.1389 30.6456 33.2227 30.4062 33.3185C30.083 33.4621 29.9992 33.534 30.1069 33.6417C30.2027 33.7375 30.3823 33.7255 30.7893 33.5699C31.292 33.3664 31.3519 33.3664 31.6272 33.5459C31.7948 33.6537 31.9265 33.8213 31.9265 33.917C31.9265 34.0128 32.0103 34.0966 32.106 34.0966C32.3454 34.0966 33.2432 34.9106 33.2432 35.1261C33.2432 35.3415 33.1834 35.3415 32.8123 35.1021C32.4652 34.8627 31.6392 34.9585 31.304 35.2577C31.1364 35.4014 30.9209 35.4373 30.3104 35.3894C29.281 35.3056 28.7902 35.4253 28.2635 35.8922C27.9283 36.1795 27.7607 36.2513 27.5213 36.1914C27.222 36.1196 27.222 36.1196 27.3058 36.6942C27.3417 37.0054 27.4854 37.4603 27.617 37.7117C27.8086 38.0948 27.8205 38.1905 27.6889 38.2384C27.4375 38.3342 26.5277 38.0589 26.025 37.7357L25.582 37.4484L25.4623 37.7476C25.3905 37.9272 25.3426 38.1427 25.3426 38.2384C25.3426 38.5377 25.0793 38.418 24.5286 37.8554C24.0259 37.3526 23.966 37.3287 23.8224 37.5202C23.6787 37.7237 23.0682 38.1666 22.9485 38.1666C22.9006 38.1666 22.8049 37.987 22.733 37.7596C22.4697 37.0294 22.3021 37.0054 21.6676 37.5681C20.8177 38.3222 20.722 38.3462 20.4706 37.9631C20.315 37.7357 20.2551 37.4005 20.2551 36.8259C20.2551 35.9281 20.0756 35.7844 19.9319 36.5745C19.7404 37.6878 19.1658 38.3821 17.9208 39.0045C17.1787 39.3756 16.1851 40.0699 16.2809 40.1537C16.3048 40.1777 16.5203 40.1417 16.7717 40.0699C17.023 39.9981 17.3103 39.9742 17.4061 40.0101C17.5737 40.0819 17.5737 40.1178 17.3822 40.3213C17.1787 40.5488 17.1787 40.5488 17.5138 40.453C17.7054 40.3931 18.0765 40.2495 18.3398 40.1298C18.8785 39.9023 20.2072 39.8425 21.2966 40.0101C21.9549 40.1058 21.9909 40.0939 22.326 39.7707C22.5176 39.5791 22.6971 39.3397 22.745 39.244C22.8049 39.0883 22.8288 39.0883 22.9365 39.244C23.1161 39.4953 23.0921 39.9622 22.8886 40.3572C22.7211 40.6804 22.733 40.6804 23.164 40.872C23.4034 40.9677 23.7745 41.2071 23.978 41.4106C24.1815 41.6022 24.5047 41.8057 24.6962 41.8655L25.0434 41.9613L24.6603 42.1528C24.4448 42.2606 24.0618 42.3563 23.7864 42.3563H23.3076L23.547 42.8232C23.6787 43.0865 23.8942 43.3738 24.0378 43.4816C24.4448 43.7569 24.2054 43.9484 23.4992 43.8886L22.8886 43.8407L22.9006 44.7983C22.9006 45.337 22.9485 45.8517 22.9964 45.9595C23.1041 46.1869 24.1695 46.8453 24.8518 47.0847C25.1391 47.1805 25.7736 47.2643 26.2524 47.2643C27.0185 47.2643 27.1502 47.2284 27.2579 47.0249C27.3298 46.8812 27.3537 46.6777 27.3178 46.546C27.1981 46.163 27.5452 45.5285 27.9881 45.349C28.2156 45.2652 28.5388 45.0617 28.7064 44.9061C29.1014 44.5469 29.8077 44.3674 30.2386 44.523L30.5379 44.6427L30.071 44.8582C29.6161 45.0617 29.2929 45.4926 29.2929 45.8877C29.2929 46.0912 29.4845 46.1271 29.5922 45.9595C29.688 45.8039 31.5434 45.8039 31.8546 45.9714C32.2377 46.163 32.6447 46.57 32.6447 46.7495C32.6447 46.8692 32.5849 46.8812 32.4173 46.7854C32.0941 46.6179 31.4117 46.6298 31.1843 46.8214C30.885 47.0488 30.8132 47.4438 31.0646 47.4678C32.4652 47.5875 33.1954 47.8628 33.5904 48.4613C33.77 48.7367 33.77 48.7486 33.5425 48.6409C33.4108 48.581 33.0517 48.5212 32.7405 48.5212C32.2856 48.5212 32.13 48.581 31.8786 48.8564C31.711 49.0359 31.5195 49.1796 31.4357 49.1796C31.3639 49.1796 31.4357 49.2873 31.6152 49.431C32.0701 49.7901 32.4053 50.5203 32.4053 51.1428C32.4053 51.8131 32.2257 51.9448 32.0462 51.3941C31.9744 51.1667 31.8906 50.9752 31.8786 50.9752C31.8546 50.9752 31.6751 51.035 31.4596 51.1068C30.9688 51.2864 30.5139 51.0949 30.1907 50.5801C29.9872 50.2689 29.8675 50.209 29.5922 50.233C29.3887 50.245 28.8141 50.2809 28.3113 50.2928C27.6769 50.3168 27.3178 50.3886 27.1741 50.5203C26.5038 51.1068 25.5222 51.2744 25.1152 50.8674C24.9835 50.7358 24.8159 50.4125 24.7441 50.1372C24.6603 49.814 24.5167 49.6105 24.3491 49.5507C24.0019 49.419 23.8822 49.5028 24.0259 49.7781C24.2054 50.1253 24.1695 51.0709 23.954 51.5258C23.8463 51.7533 23.6189 52.0525 23.4393 52.1842L23.1281 52.4356L23.0921 52.1004C23.0323 51.4061 22.9365 51.2146 22.6014 51.035C22.2542 50.8555 22.2422 50.8674 22.1106 51.2625C21.8831 51.9687 21.2367 52.3757 20.6142 52.2201C20.3868 52.1603 20.3269 52.0884 20.3868 51.9448C20.5424 51.5737 20.5783 50.9991 20.4466 50.7597C20.315 50.5203 20.291 50.5203 19.8721 50.6998C19.3334 50.9153 18.3518 50.8555 18.0765 50.5921C17.9208 50.4245 17.9328 50.3886 18.3039 50.2689C18.7348 50.1253 19.2256 49.6823 19.465 49.2155C19.7164 48.7127 19.6207 48.0065 19.1778 47.2164C18.6989 46.3545 18.663 45.9595 19.0102 45.3849C19.477 44.6307 19.2615 43.7569 18.5313 43.3858C17.861 43.0267 16.1252 42.907 16.1252 43.2182C16.1252 43.2781 15.9936 43.4456 15.8499 43.6013C15.5866 43.8526 15.5626 43.9843 15.5746 44.9659C15.5746 45.5644 15.5387 46.0912 15.4908 46.139C15.4429 46.1869 15.2753 46.0792 15.1197 45.9116C14.6768 45.4328 14.5691 45.5166 14.7606 46.151C14.9402 46.7256 14.8803 47.6832 14.6768 47.8149C14.6169 47.8389 14.4134 47.6952 14.2219 47.4797C13.8269 47.0368 13.6593 47.0727 13.8508 47.5516C14.0543 48.1142 13.9705 49.419 13.7191 49.419C13.6713 49.419 13.4797 49.2873 13.3002 49.1197C13.1206 48.9521 12.9291 48.8205 12.8812 48.8205C12.8213 48.8205 12.7735 49.0718 12.7735 49.395C12.7735 49.7781 12.6657 50.1492 12.4503 50.5562C12.0672 51.2744 12.0313 52.1722 12.3306 53.07C12.558 53.7404 13.3959 54.8417 13.9586 55.1888L14.3177 55.4163L14.3895 55.0811C14.5092 54.5544 14.6169 54.3988 15.0599 54.1833C15.4549 53.9798 15.5147 53.9798 16.1851 54.1953C17.0949 54.4586 17.4061 54.6262 17.5617 54.9255C17.6814 55.1409 17.6455 55.1529 17.0949 55.0811C16.5682 55.0212 16.4485 55.0452 16.1133 55.3325L15.7302 55.6557L16.3287 55.5719C16.9871 55.4881 16.9273 55.4522 17.6934 56.3859C18.0405 56.8168 18.28 57.3914 18.28 57.8224C18.28 58.1336 18.1004 58.0857 17.9448 57.7386C17.7413 57.2957 17.2026 57.0682 16.6998 57.2238C16.3527 57.3316 16.1971 57.3076 15.7063 57.0802C15.1556 56.8288 14.2339 56.4817 14.1261 56.4817C14.1022 56.4817 14.1142 56.5295 14.1501 56.6014C14.186 56.6612 14.5212 56.8049 14.8803 56.9126C15.5387 57.1041 15.814 57.4034 15.6823 57.7745C15.6464 57.8463 15.7063 58.1336 15.814 58.397C16.0534 58.9835 16.0534 59.4743 15.8379 59.7736C15.6943 59.9771 15.6704 59.9651 15.5985 59.5701C15.5028 59.0673 15.2873 58.8518 14.5571 58.5406C14.174 58.373 13.8748 58.1336 13.6354 57.7745C13.4319 57.4872 13.1685 57.164 13.0488 57.0682C12.9291 56.9725 12.9889 57.0802 13.1685 57.2957C13.5516 57.7745 13.5635 57.9421 13.2403 58.9356C12.9889 59.7137 12.4862 60.3123 12.0911 60.3123C11.9236 60.3123 11.9236 60.2763 12.1151 60.0728C12.2587 59.9172 12.3306 59.6539 12.3186 59.2948C12.3186 58.8399 12.2468 58.6962 11.8876 58.361C11.6482 58.1336 11.4567 57.8343 11.4567 57.6907C11.4567 57.2837 11.2293 56.9605 10.9539 56.9605C10.8103 56.9605 10.5948 56.8767 10.4751 56.769C10.2836 56.5774 10.2118 56.5774 9.56534 56.769C9.18228 56.8767 8.66754 56.9605 8.41616 56.9605H7.97325L8.28448 56.5415C8.46404 56.3141 8.65557 55.943 8.70345 55.7036L8.79922 55.2846H8.26054C7.66201 55.2846 7.12333 55.0452 6.85998 54.6621C6.57268 54.2671 6.62056 54.2072 7.18318 54.2072C7.79369 54.2072 8.18872 53.9559 8.41616 53.4172C8.66754 52.8306 8.63163 52.7708 8.20069 52.9024C7.69792 53.0461 7.31486 53.0341 6.76421 52.8905C6.3213 52.7588 5.59109 52.2441 5.59109 52.0525C5.59109 52.0046 5.81853 51.9208 6.09386 51.8849C6.38115 51.8371 6.9318 51.6336 7.32683 51.4061C8.0331 51.0111 8.04507 51.0111 8.10492 50.4006C8.1528 49.8739 8.21266 49.7542 8.58375 49.5148C9.20622 49.0958 9.32593 48.7726 9.23016 47.8628C9.09848 46.6897 9.14637 46.0792 9.40972 45.6363C9.67307 45.1934 9.68505 45.1934 8.75134 45.0497C8.30842 44.9779 7.51836 44.6307 6.58465 44.0801C6.22553 43.8766 6.16568 43.8646 5.86641 44.0322C5.4235 44.2836 5.26788 44.7864 5.53124 45.1814C5.7108 45.4687 5.79459 45.4926 6.3213 45.4447C7.02757 45.3729 7.08742 45.5405 6.56071 46.0792C6.27342 46.3665 6.10583 46.4263 5.65094 46.4263C5.17212 46.4263 5.02847 46.3665 4.74118 46.0552C4.25038 45.5285 4.08279 44.8821 4.26235 44.2477C4.41797 43.7569 4.88482 43.1703 5.23197 43.0506C5.35168 43.0147 5.26788 42.8711 4.92073 42.5718C4.33417 42.0331 3.90323 41.1832 3.83141 40.453C3.74761 39.5312 3.68776 39.3996 3.32864 39.2559C3.02938 39.1242 2.90967 39.1482 2.4907 39.3517C1.8802 39.6629 1.40137 39.6749 0.802838 39.3637C0.300072 39.1123 -0.286489 38.2743 0.156425 38.4659C0.288101 38.5137 0.64722 38.5856 0.982398 38.6095C1.49713 38.6574 1.65275 38.6215 2.05975 38.3342C2.56252 37.987 3.36455 37.8793 3.84338 38.0948C4.03491 38.1905 4.04688 38.1786 3.93914 37.9631C3.86732 37.8314 3.63988 37.6519 3.44835 37.5681C3.12514 37.4364 3.0174 37.4603 2.47873 37.7357C1.43728 38.2743 0.599338 38.0828 0.132483 37.185C-0.0949587 36.7421 0.000806325 36.6104 0.335984 36.9217C0.742985 37.2927 1.70064 37.2329 2.32311 36.8019C2.86179 36.4428 3.7117 36.3351 4.44191 36.5266C4.75315 36.6104 4.77709 36.5984 4.64541 36.4428C4.41797 36.1795 3.7117 35.976 3.24485 36.0478C3.0174 36.0837 2.67026 36.2513 2.46676 36.4189C1.85625 36.9336 0.683132 36.7421 0.240219 36.0478C0.012777 35.7126 0.0965714 35.5809 0.419778 35.7605C0.910574 36.0239 1.72458 35.8323 2.11961 35.3535C2.62237 34.755 3.92717 34.5156 4.64541 34.8866C5.13621 35.138 5.22 35.0183 4.76512 34.7071C4.1187 34.2402 3.12514 34.2283 2.64632 34.6831C1.76049 35.4971 0.563426 35.2936 0.120513 34.2402C-0.0949587 33.7255 -0.0111643 33.6417 0.395837 33.9649C0.958457 34.4078 1.44925 34.3001 2.14355 33.6178C2.77799 32.9833 3.23288 32.8157 3.98703 32.9354C4.35812 32.9953 4.406 32.9833 4.3222 32.8038C4.27432 32.696 4.21447 32.2172 4.19053 31.7623C4.14264 31.0201 4.17856 30.8406 4.47782 30.254L4.82497 29.5837L4.34614 29.0569C3.75958 28.3986 3.35258 27.5127 3.18499 26.5671C2.99346 25.5376 3.28076 24.2926 3.92717 23.335C4.21447 22.904 4.39403 22.497 4.39403 22.2696C4.39403 21.7668 3.96308 21.3 3.41244 21.2042C2.44281 21.0486 1.95202 22.3654 2.71814 23.0836C2.90967 23.2632 3.07726 23.4547 3.07726 23.4906C3.07726 23.5265 2.77799 23.5624 2.41887 23.5624C1.86822 23.5624 1.71261 23.5145 1.34152 23.1913C0.802838 22.7125 0.599338 22.0541 0.778897 21.4197C0.994369 20.7134 1.74852 19.9353 2.59843 19.5642C3.24485 19.2769 3.46032 19.2291 4.2025 19.2769C5.13621 19.3248 6.06992 19.7079 6.71633 20.3064C7.53033 21.0725 7.86551 22.6048 7.43457 23.6223C7.3388 23.8617 7.27895 24.0891 7.30289 24.1251C7.41063 24.2208 8.33236 23.5744 8.66754 23.1554C8.8471 22.916 9.12243 22.3893 9.26607 21.9823L9.51746 21.2282L9.78081 21.8147C10.0083 22.3055 10.0442 22.5569 9.99628 23.3709C9.91249 24.8672 9.34987 25.7411 7.9493 26.5311C7.59019 26.7346 7.25501 26.9501 7.2191 27.01C7.18318 27.0698 7.44654 27.0938 7.80566 27.0579C8.18872 27.0219 8.61966 27.0698 8.82316 27.1536C9.58928 27.4768 10.2477 28.638 10.0681 29.3562L9.99628 29.6675L9.44563 29.3442C8.69148 28.9013 7.9493 28.9013 7.19515 29.3802C5.95021 30.1463 5.57912 31.7982 6.40509 32.9474C7.60216 34.6233 7.67398 36.5745 6.57268 38.1546C5.63897 39.4953 5.54321 39.8425 5.90233 40.6565L6.10583 41.0994L6.20159 40.6325C6.42903 39.6749 7.08742 39.1242 8.02113 39.1242C8.4401 39.1242 8.60769 39.1961 8.87104 39.4714C9.27804 39.9023 9.32593 40.5607 8.96681 41.0276C8.61966 41.5064 8.38025 41.4944 8.4401 41.0036C8.47601 40.6804 8.42813 40.5488 8.22463 40.4051C7.45851 39.8784 6.68042 41.3508 7.20712 42.3443C7.39866 42.7394 8.0331 43.0746 8.55981 43.0746C8.87104 43.0746 8.97878 42.9668 9.38578 42.3204C9.64913 41.9134 10.1519 41.2191 10.511 40.8001C11.5644 39.5432 11.8757 39.1123 12.4503 38.1067C13.1446 36.9217 13.6832 35.4373 13.791 34.4916L13.8748 33.7734L13.2164 33.8332C12.8573 33.8572 12.4742 33.8332 12.3665 33.7734C12.1869 33.6776 12.2228 33.6178 12.6298 33.3424C13.2882 32.9115 13.6713 32.1095 13.5635 31.3793C13.5276 31.068 13.4678 30.8047 13.4558 30.7807C13.4319 30.7568 13.2403 30.8286 13.0249 30.9363C12.4981 31.1997 11.8278 31.2715 11.4088 31.1159L11.0617 30.9722L11.325 30.6969C11.7081 30.2899 11.8158 29.7034 11.6243 29.0689C11.4088 28.3507 11.4208 27.4888 11.6363 26.9501C11.8876 26.3516 11.8637 26.3396 11.3849 26.8065C10.93 27.2374 10.5828 27.824 10.4512 28.4105C10.2836 29.0929 10.104 28.3986 10.1639 27.2733C10.1998 26.3875 10.2716 26.1002 10.6068 25.4179C10.8342 24.975 11.2532 24.3525 11.5644 24.0413L12.1151 23.4667L11.7799 23.1674C11.5285 22.94 11.4567 22.7604 11.4567 22.3773V21.8865H11.9595H12.4622L12.0911 21.4915C11.5285 20.905 11.337 20.4261 11.337 19.6361C11.337 18.9298 11.337 18.9298 11.732 18.858C11.9475 18.8221 12.3665 18.846 12.6538 18.8939C12.953 18.9537 13.2044 18.9777 13.2164 18.9777C13.2284 18.9657 13.1685 18.7263 13.0967 18.451C13.0249 18.1756 13.0009 17.9123 13.0368 17.8764C13.0847 17.8285 13.3002 18.0081 13.5396 18.2594L13.9586 18.7143L13.9705 17.9602C13.9705 17.5532 14.0184 17.218 14.0902 17.218C14.1501 17.218 14.2099 17.3018 14.2099 17.4095C14.2099 17.5053 14.3775 17.7567 14.5691 17.9602C14.9282 18.3193 14.9521 18.3193 15.802 18.2475C16.7836 18.1517 17.7532 18.3552 18.5553 18.8221C19.082 19.1213 19.8242 19.2769 20.9135 19.3129C21.2846 19.3248 21.7036 19.3967 21.8472 19.4804C22.1106 19.6241 22.1225 19.6959 22.0986 20.7852C22.0866 21.4197 22.1225 22.09 22.1584 22.2576C22.2662 22.6287 21.9669 23.4427 21.7275 23.4427C21.6317 23.4427 21.5599 23.2751 21.5479 23.0118C21.524 22.497 21.3444 22.2457 21.0452 22.3295C20.71 22.4133 19.7643 21.9584 19.5369 21.5992C19.3573 21.3359 19.2975 21.312 19.1418 21.4317C18.7588 21.7549 18.5194 22.7005 18.7348 23.0597C18.8785 23.2751 19.9918 23.1075 19.908 22.8921C19.8002 22.6168 20.1593 22.7005 20.3988 22.9998C20.6621 23.335 21.5958 23.8018 22.0028 23.8018C22.4218 23.8018 22.5894 23.5864 22.5894 23.0597C22.5894 22.2935 23.3316 21.7668 23.9062 22.126C24.0498 22.2217 24.0378 22.2696 23.8343 22.509C23.6907 22.6646 23.547 23.0238 23.5111 23.323C23.4154 24.0652 23.0203 24.4004 22.2183 24.4004C21.6557 24.4004 21.6317 24.4123 21.7514 24.6398C21.9669 25.0468 21.8592 25.5256 21.536 25.5735C21.2966 25.6094 21.2606 25.6812 21.2966 25.9805C21.3444 26.4474 21.1649 26.5192 20.7579 26.196C20.5185 26.0044 20.4347 25.8368 20.4347 25.5256C20.4347 25.0827 20.3389 25.0468 19.6087 25.1904C19.2975 25.2503 19.2376 25.3221 19.2376 25.6094C19.2376 25.9925 19.4172 26.1241 20.1354 26.2558C20.3868 26.2917 20.7579 26.4114 20.9494 26.5192C21.2846 26.6868 21.3085 26.6748 21.8472 26.2319C22.1584 25.9685 22.6612 25.5855 22.9724 25.382C24.0378 24.6518 24.78 23.4667 25.1631 21.9225C25.3666 21.0725 25.3666 21.0486 25.1272 20.5458C24.6483 19.5523 24.7202 19.2889 25.6778 18.3073C26.1207 17.8405 26.6355 17.4095 26.827 17.3497C27.1502 17.218 27.617 17.1701 27.617 17.2659Z" fill="black"/>
<path fill-rule="evenodd" clip-rule="evenodd" d="M32.0431 19.6895C42.652 16.853 54.4312 16.853 65.0401 19.6895C65.0401 25.9438 65.0401 32.198 65.0401 38.4524C65.0401 47.8334 48.5413 56.9616 48.5413 56.9616C48.5413 56.9616 32.0431 47.835 32.0431 38.4524C32.0431 32.198 32.0431 25.9438 32.0431 19.6895Z" fill="#000E6C"/>
<path d="M39.4592 20.7773C39.2926 21.2503 39.2282 22.3043 39.3267 22.9682C39.4024 23.4745 39.6297 24.2255 39.8455 24.6944C39.9326 24.8853 40.1864 25.3791 40.4098 25.7899C40.8757 26.6447 40.9552 26.8065 40.9249 26.8355C40.8492 26.9185 39.891 26.404 39.4479 26.0471C39.1411 25.7982 38.3836 24.9973 38.0466 24.5658C37.8231 24.2753 37.7852 24.3168 37.808 24.8355C37.8307 25.2961 37.9329 25.6156 38.2283 26.1633C38.6639 26.9642 39.1676 27.599 39.9137 28.2961C40.1675 28.5327 40.372 28.7401 40.372 28.7609C40.372 28.819 40.2205 28.8065 39.8152 28.7194C39.2055 28.5866 38.6374 28.3418 37.9746 27.9185C37.6262 27.6945 37.5883 27.736 37.7587 28.1634C37.9216 28.5783 38.1715 28.9518 38.5616 29.3626C39.2547 30.0929 39.997 30.5327 41.1862 30.9269C41.5006 31.0306 41.8074 31.1344 41.868 31.1634C41.9702 31.2049 41.974 31.2132 41.9134 31.2547C41.7392 31.3585 41.1105 31.4539 40.3 31.4954C39.8304 31.5203 39.4403 31.5493 39.4289 31.5618C39.3797 31.6199 40.05 32.1883 40.3758 32.3668C40.6106 32.4996 41.0688 32.6655 41.4135 32.7485C41.5536 32.7776 41.9323 32.7983 42.4058 32.8025H43.1708L42.9739 32.9145C42.7807 33.0182 42.4209 33.1552 41.7203 33.3834C41.5347 33.4456 41.2885 33.5411 41.1711 33.5992L40.959 33.7029L41.2241 33.8398C41.6369 34.0515 41.9816 34.1303 42.5497 34.1303C42.8224 34.1303 43.2087 34.1054 43.4132 34.0722C43.6366 34.039 43.7995 34.0307 43.8184 34.0515C43.8411 34.0764 43.5874 34.3212 43.1746 34.6697C42.7996 34.9892 42.4929 35.2631 42.4929 35.2756C42.4929 35.3295 42.8375 35.3959 43.114 35.3959C43.6101 35.3959 44.2237 35.1884 45.3068 34.6531C45.4508 34.5826 45.5833 34.5245 45.6023 34.5245C45.6553 34.5245 45.428 34.8772 45.2197 35.122C45.125 35.2341 44.8561 35.4996 44.6251 35.7154C44.3903 35.927 44.1972 36.122 44.1972 36.1428C44.1972 36.205 44.6024 36.2382 44.8372 36.1926C45.1516 36.1303 45.4811 35.981 46.1969 35.5743C46.5339 35.3834 46.8104 35.2341 46.8104 35.2424C46.8104 35.2548 46.6476 35.566 46.4506 35.9395C46.2537 36.3088 46.0984 36.62 46.106 36.6324C46.1287 36.6573 46.5907 36.4872 46.8483 36.3586C46.9619 36.3005 47.1626 36.1801 47.2952 36.0889C47.6285 35.8606 47.655 35.9063 47.4656 36.4208C47.3823 36.6449 47.3179 36.8358 47.3255 36.8441C47.3634 36.8897 47.7459 36.8399 47.8898 36.7694C47.9807 36.7279 48.1852 36.5577 48.3443 36.3918C48.5601 36.176 48.6473 36.1096 48.67 36.1511C48.6851 36.1801 48.6435 36.3614 48.67 36.5108L49.0472 35.5743L48.7912 36.7486L48.5639 37.0806C47.3899 38.7943 46.6551 40.5122 46.5036 41.8815C46.4582 42.3006 46.4506 42.3131 46.1287 42.5081C45.7386 42.7405 45.2765 42.7197 44.8561 42.4458C44.5721 42.2633 44.0002 41.6408 43.754 41.2466C43.648 41.0765 43.3602 40.5246 43.1178 40.0226C42.4701 38.6947 41.031 36.1013 40.5083 35.3212C40.2015 34.8689 39.4857 34.1179 39.107 33.8647C38.2889 33.3087 37.4671 33.1012 36.7172 33.2589C35.3689 33.5369 34.4978 34.6407 34.6531 35.8648C34.7402 36.5287 35.0319 37.0225 35.5583 37.4001C36.1264 37.8109 37.0088 38.3503 37.0467 38.3088C37.0694 38.2839 37.0619 38.1843 37.0278 38.0267C36.9937 37.8897 36.9747 37.7777 36.9785 37.7694C36.9861 37.7652 37.1035 37.815 37.2399 37.8814C37.6072 38.0599 38.1488 38.259 38.2738 38.259C38.5048 38.259 38.501 38.2134 38.2056 37.7362C37.5997 36.7445 37.0164 36.3088 36.2892 36.3088C35.937 36.3088 35.7401 36.2382 35.5431 36.0515C35.1265 35.649 35.2023 34.9477 35.7211 34.4208C36.168 33.9643 36.7778 33.7693 37.4519 33.8606C38.2927 33.9768 38.7396 34.2091 39.3418 34.8316C39.6107 35.1137 40.069 35.6988 40.069 35.7652C40.069 35.8233 39.8796 35.8938 39.7357 35.8938C39.66 35.8897 39.4933 35.8648 39.3683 35.8316C39.107 35.761 38.9328 35.7527 38.9328 35.8067C38.9328 35.8897 39.1903 36.2133 39.3494 36.3295L39.5198 36.454L39.5085 36.7528C39.4895 37.1594 39.5691 37.4125 39.7849 37.6325C39.9289 37.7777 40.069 37.8524 40.069 37.786C40.069 37.7735 40.0235 37.6325 39.9705 37.4748C39.8531 37.1304 39.8683 36.9395 40.016 36.8109C40.3606 36.5121 40.7734 36.8109 41.2544 37.7113C41.6824 38.508 41.9361 39.035 42.5383 40.3753C42.8451 41.0475 43.1822 41.7487 43.292 41.9272C43.6934 42.5952 44.3486 43.2135 44.8524 43.4044C45.3334 43.5911 45.8825 43.5828 46.3256 43.3878C46.4582 43.3297 46.5718 43.2965 46.587 43.3131C46.5983 43.3297 46.64 43.4251 46.6741 43.5289C46.7119 43.6326 46.7915 43.8069 46.8559 43.9148L46.9733 44.1139L46.8975 44.226C46.8066 44.3588 46.3408 44.6617 45.7727 44.9521C45.1743 45.2592 44.7653 45.5082 44.6213 45.6575C44.3335 45.9604 44.2691 46.3629 44.4623 46.6949C44.5683 46.8816 44.6138 46.9107 45.269 47.2634C46.2196 47.7696 46.2234 47.7738 46.5226 48.8402C46.6968 49.4502 46.7839 49.6161 47.0187 49.778C47.4315 50.0643 47.5186 50.2261 47.4164 50.5249L47.3747 50.6369L47.5527 50.612C47.7837 50.5871 47.9012 50.4834 48.0489 50.1846C48.1132 50.0518 48.2155 49.8983 48.2723 49.8527C48.4655 49.6825 48.7381 49.6867 48.9124 49.861C48.9881 49.9398 49.007 49.9937 49.007 50.1722C49.007 50.3464 49.0184 50.3796 49.0676 50.3589C49.1017 50.3464 49.1396 50.334 49.1585 50.334C49.1775 50.334 49.2419 50.2842 49.3062 50.2261C49.4691 50.0767 49.507 49.8983 49.4388 49.5788C49.4085 49.4336 49.3896 49.2593 49.4047 49.1887C49.4312 49.0186 49.7304 48.7157 49.8706 48.7157C49.8857 48.7157 49.9387 48.7904 49.988 48.8817C50.0334 48.973 50.0864 49.0477 50.1054 49.0477C50.1243 49.0477 50.1849 48.9813 50.2417 48.9024C50.4008 48.6701 50.3818 48.5165 50.1243 47.9978C49.9425 47.6368 49.8706 47.5289 49.7342 47.4294C49.4691 47.2385 49.3025 47.226 48.5147 47.3464C48.1738 47.4003 48.1398 47.3962 47.8784 47.309C47.708 47.2551 47.4959 47.1389 47.3141 47.002C47.0225 46.7862 46.6816 46.3837 46.7081 46.2966C46.7233 46.2468 46.8521 46.226 48.2723 46.06C49.2873 45.9438 49.5979 45.8194 50.0448 45.3588C50.4614 44.9231 50.6962 44.4376 50.8818 43.6367C51.0446 42.9438 51.0749 42.9064 51.518 42.9064C52.1543 42.9064 52.4838 43.0185 52.73 43.3172C52.9459 43.5786 52.9837 43.7903 52.9837 44.7073C52.9837 45.5331 53.014 45.782 53.1276 45.836C53.1617 45.8526 53.7791 45.8775 54.4987 45.8941C55.2561 45.9107 55.8583 45.9438 55.9303 45.9687C56.0022 45.9936 56.1386 46.0725 56.237 46.1389C56.4832 46.3132 56.6877 46.3837 57.0702 46.4335C57.449 46.4791 57.5626 46.5497 57.6421 46.7986C57.6724 46.8941 57.7065 46.9729 57.7179 46.9729C57.733 46.9729 57.7823 46.9231 57.8353 46.865C57.9489 46.7322 57.9489 46.5497 57.8353 46.1721C57.7898 46.0227 57.7558 45.836 57.7633 45.7613C57.7747 45.6368 57.8012 45.6077 58.0777 45.4501C58.2443 45.3546 58.392 45.2758 58.4034 45.2716C58.4185 45.2716 58.4678 45.3837 58.5132 45.5206C58.5587 45.6575 58.6117 45.7696 58.6268 45.7696C58.7026 45.7696 58.7859 45.392 58.7707 45.1181C58.7518 44.7778 58.6268 44.4666 58.3579 44.0973C58.1383 43.8027 58.1118 43.7114 58.1724 43.5081C58.1989 43.4168 58.2064 43.2799 58.1913 43.172C58.1761 43.0475 58.1837 42.9645 58.214 42.923C58.2708 42.8483 58.4413 42.8483 58.6155 42.9272C58.6912 42.9604 58.7594 42.9811 58.7707 42.9687C58.8124 42.923 58.6988 42.6243 58.5927 42.5164C58.4943 42.4126 58.4337 42.3961 57.9224 42.3214C57.6118 42.2757 57.2785 42.2301 57.1839 42.2176C56.8316 42.1637 56.4416 42.5122 56.256 43.0392C56.131 43.4044 55.9719 43.6326 55.7106 43.8235C55.4379 44.0268 55.1766 44.1098 54.8244 44.1098C54.563 44.1098 54.5252 44.0973 54.4343 44.0019C54.3396 43.8982 54.3358 43.8816 54.3623 43.5372C54.3888 43.0932 54.4305 42.9479 54.7107 42.2633L54.9342 41.7238V41.2466C54.9342 40.7944 54.9266 40.757 54.8206 40.5454C54.6842 40.2715 54.4759 40.0723 54.1995 39.952C53.9949 39.8607 53.9457 39.8566 52.9951 39.8649L51.999 39.869V39.7736C51.999 39.6035 52.1467 39.1512 52.2641 38.9561C52.4308 38.6823 52.7262 38.3918 52.9686 38.2715C53.139 38.1885 53.2678 38.1594 53.6579 38.1345C53.9646 38.1096 54.2373 38.064 54.404 38.0101C54.5517 37.9603 54.7221 37.9146 54.7827 37.9105C54.9115 37.9063 54.9153 37.9354 54.8585 38.313L54.8282 38.5163L54.9607 38.4375C55.1122 38.3503 55.3091 38.1138 55.6727 37.5744C56.0818 36.9685 56.2257 36.8648 56.7635 36.8109C57.1157 36.7735 57.2899 36.7113 57.5702 36.5162C57.9792 36.2258 58.2064 36.4416 58.2102 37.1221C58.2102 37.2632 58.233 37.4374 58.2595 37.508C58.3087 37.6283 58.3125 37.6325 58.3655 37.5661C58.3958 37.5246 58.4602 37.4001 58.5132 37.2881C58.801 36.6781 59.2934 36.3378 59.9789 36.2797C60.244 36.259 60.3273 36.2341 60.4637 36.1345C60.6796 35.9768 60.7818 35.9934 60.8803 36.1926C60.9712 36.3835 61.028 36.3918 61.1075 36.2258C61.2211 35.9851 61.1795 35.8274 60.9144 35.5162C60.6796 35.2341 60.6076 34.8357 60.7667 34.6905C60.797 34.6614 60.8651 34.5577 60.9182 34.454C61.0166 34.2714 61.0242 34.2714 61.1946 34.2838C61.3688 34.2963 61.3726 34.2921 61.384 34.1676C61.3916 34.0764 61.3688 34.0017 61.3045 33.9228C61.2098 33.7983 61.1605 33.79 60.7856 33.8232C60.6076 33.8398 60.3235 33.7154 60.2289 33.5784C60.1077 33.4124 60.2516 33.1137 60.4447 33.1137C60.6038 33.1137 60.619 33.0431 60.4826 32.9062C60.3235 32.7444 60.1531 32.7444 59.8198 32.9104C59.6797 32.9767 59.479 33.0473 59.3691 33.0597C59.1495 33.0846 59.0472 33.1676 58.8995 33.4415C58.7935 33.6407 58.7745 33.8606 58.8313 34.2963C58.8579 34.5162 58.8541 34.5577 58.7859 34.649L58.7102 34.7486L58.2633 34.6988C57.1763 34.5826 56.5021 34.3751 56.3999 34.1262C56.3772 34.0764 56.3696 33.9021 56.381 33.7278C56.3999 33.4622 56.3885 33.3792 56.2901 33.068C56.2143 32.8232 55.3792 32.3558 55.4019 32.2936C55.4171 32.2438 56.3393 32.3875 56.4605 32.2091C57.0968 31.2921 57.2634 30.9103 57.5853 29.653C57.7633 28.9559 57.7936 28.8937 57.9944 28.8397C58.0815 28.8148 58.1837 28.7858 58.2178 28.7733C58.2519 28.7609 58.3276 28.6945 58.3807 28.624L58.4791 28.4953L58.286 28.3916C58.0133 28.2505 57.9678 28.126 57.9906 27.5534C58.0095 27.0513 58.0398 26.9725 58.3655 26.5243C58.4905 26.3583 58.589 26.2048 58.589 26.1799C58.589 26.1592 58.623 26.1052 58.6647 26.0596C58.7367 25.9807 58.7518 25.9807 58.8465 26.0347C58.9071 26.0679 58.9753 26.126 59.0056 26.1592C59.1268 26.3251 59.2177 25.9185 59.1078 25.6944C59.0813 25.6446 58.8389 25.4662 58.57 25.2961C58.0512 24.9807 57.9451 24.8562 57.9451 24.599C57.9451 24.4288 58.0474 24.3915 58.2405 24.4828C58.3276 24.5243 58.4072 24.545 58.4185 24.5243C58.4488 24.4703 58.2254 24.0886 58.1155 24.0097C57.9678 23.9019 57.7709 23.9268 57.5891 24.0678C57.43 24.1965 56.7483 24.4579 56.6877 24.4164C56.6726 24.4039 56.6574 24.3375 56.6574 24.2712C56.6574 24.1674 56.6802 24.1342 56.79 24.0844C56.9453 24.0139 56.9491 23.9931 56.8468 23.8687C56.7218 23.7234 56.5893 23.711 56.3961 23.823C56.237 23.9143 56.2029 23.9641 55.9946 24.4164C55.7106 25.0305 55.703 25.1467 55.9113 25.877C56.1007 26.5534 56.1424 26.9185 56.0704 27.3584C55.9416 28.1717 55.6159 28.9352 55.1084 29.6281C54.9001 29.9103 54.7979 29.9974 54.6653 30.0016C54.5176 30.0016 53.3852 29.3501 52.8512 28.9559C51.8627 28.2256 51.696 28.097 51.7301 28.0762C51.8324 28.0057 52.374 27.8024 52.4573 27.8024C52.5103 27.8024 52.6239 27.8563 52.7035 27.9185C52.783 27.9849 52.9307 28.0887 53.0292 28.1509C53.2413 28.2837 53.2754 28.2381 53.1579 27.9766L53.0784 27.7941L53.2981 27.5824C53.442 27.4414 53.514 27.3335 53.514 27.2754C53.514 27.2173 53.4155 27.0679 53.2602 26.8895L53.0102 26.5949L52.9118 26.6944C52.7679 26.8438 52.6542 26.8978 52.4762 26.8978C52.302 26.9019 52.0369 26.8189 52.0369 26.765C52.0369 26.7027 52.3626 26.5119 52.6088 26.4289C52.9951 26.2961 53.3208 26.3376 53.7942 26.5783C54.0858 26.7276 54.351 26.711 54.6842 26.516C55.0516 26.3002 55.0402 26.1841 54.6464 26.1841C54.2979 26.1841 53.9722 26.0886 53.5821 25.8812C53.3094 25.7276 53.2564 25.682 53.1807 25.5201C53.0671 25.2795 53.0898 25.1176 53.2678 24.8355C53.4268 24.5824 53.4306 24.5201 53.3019 24.2753C53.2148 24.1093 53.2072 24.0637 53.2299 23.794C53.2526 23.5284 53.2488 23.4869 53.1807 23.4122C53.0595 23.2794 52.8512 23.267 52.5103 23.3624C52.124 23.4703 51.4196 23.5409 51.0333 23.5077C50.8666 23.4952 50.5523 23.4247 50.3326 23.3541C49.863 23.2047 49.6926 23.213 49.5373 23.3915C49.4426 23.4952 48.3518 25.0347 47.5944 26.126C47.1816 26.7276 47.0414 27.0555 46.9808 27.5741C46.9619 27.7692 47.0301 28.3376 47.0945 28.5244C47.121 28.5949 47.1172 28.5949 47.0149 28.5368C46.8369 28.4372 45.9848 28.1468 45.5985 28.0555C45.1099 27.9393 45.0304 27.9144 44.7577 27.7609C44.432 27.5824 44.129 27.321 43.4738 26.6613C42.0232 25.1965 40.9173 23.574 39.9932 21.5616C39.7736 21.0844 39.5728 20.686 39.5501 20.6736C39.5236 20.6653 39.4819 20.7109 39.4592 20.7773Z" fill="#FFE4A5"/>
<path d="M47.9995 21.5243C47.9541 21.6404 47.9465 21.7525 47.9654 21.9931C47.9806 22.1633 47.9881 22.4413 47.9844 22.6114C47.9806 22.8438 47.9995 22.9517 48.0601 23.0762C48.1018 23.1674 48.1358 23.2546 48.1358 23.2712C48.1358 23.2919 48.0753 23.3293 47.9995 23.3583C47.8442 23.4206 47.742 23.5782 47.6586 23.8895C47.6283 24.0098 47.5943 24.1094 47.5905 24.1094C47.5829 24.1094 47.4996 23.989 47.4011 23.8438C47.3026 23.6986 47.1966 23.5658 47.1625 23.5534C47.1284 23.5368 47.0262 23.5658 46.9353 23.6156C46.8065 23.682 46.727 23.6986 46.5982 23.6778C46.5073 23.6654 46.3558 23.6405 46.2611 23.628C46.0452 23.5948 46.0415 23.6363 46.227 24.0139C46.3482 24.2629 46.3596 24.321 46.3407 24.4953C46.3066 24.7525 46.405 24.8729 46.6891 24.9144C46.7951 24.9268 46.8936 24.96 46.905 24.9808C46.9163 25.0015 46.8595 25.0555 46.7762 25.1011C46.5982 25.2048 46.4808 25.3542 46.4316 25.5575L46.3975 25.7069L46.1854 25.6945C46.0377 25.682 45.9051 25.7028 45.7574 25.765C45.64 25.8107 45.4203 25.8812 45.2764 25.9144C45.0113 25.9766 44.7651 26.1053 44.7651 26.1758C44.7651 26.1966 44.9734 26.292 45.231 26.3916C45.4847 26.487 45.8938 26.653 46.1399 26.7567C46.5149 26.9144 46.5982 26.9352 46.6777 26.8978C46.727 26.8729 46.8747 26.6904 47.0072 26.4912C47.5715 25.6322 48.5222 24.2588 48.8365 23.8438C49.0259 23.5948 49.219 23.3417 49.2645 23.2753L49.3554 23.155L48.9956 22.7401C48.6358 22.3251 48.3631 21.9185 48.204 21.5575C48.1586 21.4537 48.1055 21.3707 48.0866 21.3707C48.0715 21.3707 48.0298 21.4413 47.9995 21.5243Z" fill="#FFE4A5"/>
<path d="M48.3226 0.22222C48.2311 0.346235 48.154 0.470249 48.154 0.500183C48.154 0.530117 48.1347 0.555776 48.1058 0.555776C48.0818 0.555776 48.0577 0.577157 48.0577 0.602815C48.0577 0.641303 47.9903 0.786698 47.8169 1.13308C47.6676 1.42815 47.6098 1.69328 47.5905 2.13802C47.5713 2.56138 47.5809 2.66829 47.6676 2.90349C47.7254 3.05316 47.7639 3.18145 47.7543 3.19001C47.7302 3.21566 47.4123 3.07027 47.3931 3.02323C47.3834 3.00612 47.3449 2.99329 47.3112 2.99329C47.2727 2.99329 47.2149 2.96764 47.1811 2.9377C47.1089 2.87783 46.6803 2.69395 46.3624 2.58704C46.0349 2.48013 45.4473 2.51007 45.2113 2.65119C44.6527 2.98474 44.6912 3.67751 45.3029 4.17784C45.4329 4.28475 45.5196 4.31896 45.6544 4.31896C45.9097 4.31896 45.9916 4.23343 45.953 3.99396C45.929 3.84429 45.9434 3.78442 46.0156 3.71172C46.1457 3.58771 46.4587 3.46369 46.661 3.46797C47.0511 3.47224 47.5279 3.75448 47.5279 3.98113C47.5279 4.08376 47.4075 4.34462 47.3304 4.40449C47.316 4.41732 47.1811 4.57127 47.0367 4.7466C46.5888 5.28114 46.6562 5.40943 47.2823 5.22982C47.4508 5.18278 47.5905 5.10153 47.7206 4.97324C47.8265 4.87489 47.9325 4.78936 47.9565 4.78936C47.9806 4.78936 48.0143 4.84068 48.0336 4.90482C48.048 4.96897 48.0914 5.03739 48.1203 5.05449C48.1877 5.0887 48.1925 5.71305 48.1299 5.84134C48.1058 5.8841 48.0625 6.0295 48.0288 6.15779C47.9951 6.28608 47.9421 6.48707 47.9132 6.60681C47.8843 6.72227 47.841 6.85911 47.8169 6.90615C47.7928 6.95319 47.7061 7.16273 47.629 7.37655C47.3786 8.03938 47.3064 8.18478 47.0367 8.58676C46.9355 8.73215 46.8536 8.87327 46.8536 8.89465C46.8536 8.92031 46.8344 8.93742 46.8103 8.93742C46.7862 8.93742 46.7477 8.98018 46.7284 9.0315C46.6947 9.12558 46.4443 9.38216 46.059 9.71571C45.8615 9.88677 45.2499 10.1733 44.8935 10.2674C44.643 10.3315 43.9351 10.293 43.7135 10.2075C43.6268 10.1733 43.4775 10.1177 43.386 10.0878C43.2078 10.0279 42.7551 9.79696 42.7118 9.74137C42.6973 9.72427 42.5914 9.65584 42.4806 9.5917C42.2735 9.46768 41.4114 8.73215 41.4114 8.68084C41.4114 8.66373 41.3681 8.60814 41.3151 8.55255C41.238 8.47557 41.2188 8.39432 41.2188 8.14629C41.2188 7.97952 41.2332 7.82984 41.2477 7.81274C41.2669 7.79991 41.3488 7.83412 41.4307 7.88971C41.6908 8.06077 42.5191 8.07787 42.5577 7.90682C42.5721 7.84267 41.9075 7.35517 41.8112 7.35517C41.7919 7.35517 41.6811 7.28247 41.5704 7.19267C41.3922 7.05582 41.3633 7.00878 41.3633 6.86766C41.3633 6.61108 41.5126 6.44003 41.869 6.29036C42.1531 6.16634 42.5673 6.10648 42.5673 6.192C42.5673 6.20911 42.6155 6.24332 42.6781 6.2647C42.7551 6.29463 42.7985 6.36306 42.8274 6.51273C42.8659 6.67095 42.8948 6.72227 42.9863 6.73937C43.2849 6.8078 43.5353 6.5897 43.6606 6.15351C43.7232 5.92687 43.728 5.84989 43.675 5.67029C43.5498 5.22555 43.3186 5.04594 42.8852 5.04594C42.6203 5.04594 42.0375 5.22555 42.0375 5.3068C42.0375 5.32818 42.0086 5.34529 41.9701 5.34529C41.8882 5.34529 41.2862 5.867 41.0502 6.14496C40.9491 6.26898 40.8527 6.35878 40.8335 6.35023C40.8142 6.34167 40.7853 6.14924 40.7709 5.92687C40.7516 5.70877 40.7034 5.43936 40.6553 5.34101C40.559 5.11436 40.2363 4.64396 40.0099 4.40021C39.6872 4.04528 39.0852 3.54922 38.9841 3.54922C38.9552 3.54922 38.9022 3.62619 38.8685 3.72027C38.777 3.98541 38.6566 4.90054 38.6807 5.14857C38.7144 5.4693 38.8203 5.94397 38.8589 5.94397C38.8781 5.94397 38.9118 5.99529 38.9311 6.05944C38.9456 6.12786 39.0708 6.30746 39.2008 6.46996C39.3309 6.62819 39.4368 6.76503 39.4368 6.76931C39.4368 6.77786 39.1912 6.73937 38.8974 6.68806C38.0594 6.53839 37.573 6.55549 37.101 6.76076C36.8313 6.87622 36.7687 6.92753 36.6675 7.09431C36.4701 7.4407 36.7012 7.97096 37.1684 8.24037C37.5633 8.4713 37.8379 8.46702 38.016 8.22754C38.0835 8.13774 38.0787 8.11636 37.9872 7.97524C37.8716 7.80419 37.886 7.68017 38.0498 7.52195C38.2328 7.34662 38.411 7.29102 38.8059 7.29102C39.5187 7.29102 39.6006 7.53905 39.2153 8.47985C39.1767 8.56538 39.1478 8.70649 39.1478 8.78775C39.1478 8.99301 39.2779 8.98446 39.6343 8.75353C39.8462 8.61669 39.9377 8.52261 40.0196 8.36011C40.0774 8.24037 40.1303 8.14202 40.1351 8.13346C40.1448 8.12491 40.2459 8.21044 40.3711 8.3259C40.5782 8.52261 40.5927 8.54399 40.5927 8.77919C40.5927 9.27525 40.4386 10.2417 40.27 10.7762C40.1592 11.1269 39.9329 11.5973 39.8606 11.623C39.8365 11.6315 39.8221 11.6615 39.8221 11.6914C39.8221 11.7684 39.3116 12.1832 39.1527 12.2388C38.8974 12.3286 38.83 12.3499 38.6421 12.3927C37.7223 12.6065 37.1154 12.5509 36.2822 12.1832C35.4442 11.8068 35.006 11.5161 35.006 11.3279C35.006 11.2595 35.0445 11.2466 35.2853 11.2466C35.5261 11.2466 35.6128 11.221 35.8777 11.0799C36.1763 10.9174 36.2678 10.8105 36.1715 10.7249C36.1474 10.7035 35.9018 10.6651 35.6272 10.6437C35.0108 10.5966 34.6592 10.5325 34.611 10.4641C34.5918 10.4341 34.5725 10.3101 34.5725 10.1818C34.5725 9.86538 34.7122 9.63446 35.006 9.45486C35.2131 9.33084 35.2709 9.31374 35.4442 9.33512C35.555 9.34795 35.6658 9.38643 35.685 9.41637C35.8054 9.60025 35.8584 9.63019 35.9981 9.60453C36.2148 9.55749 36.3256 9.39071 36.3208 9.11702C36.316 8.89893 36.1763 8.50978 36.104 8.50978C36.08 8.50978 36.0655 8.48412 36.0655 8.45419C36.0655 8.3986 35.9355 8.28314 35.7284 8.15912C35.5309 8.03511 35.1986 8.06077 34.9048 8.21471C34.6014 8.37294 34.5244 8.44991 34.3269 8.80913C34.0861 9.24959 34.0283 9.42064 33.9512 9.91242C33.9127 10.1647 33.8019 10.3187 33.8019 10.122C33.8019 10.0578 33.7827 10.0065 33.7634 10.0065C33.7441 10.0065 33.6863 9.94236 33.6334 9.86538C33.4407 9.57887 32.9976 9.194 32.8532 9.194C32.8194 9.194 32.7905 9.17689 32.7905 9.15551C32.7905 9.13413 32.7376 9.10419 32.6701 9.09137C32.6027 9.07426 32.5497 9.0486 32.5497 9.02722C32.5497 9.00584 32.4871 8.9759 32.4053 8.9588C32.3282 8.94169 32.2511 8.91176 32.2367 8.89038C32.2174 8.869 32.1741 8.85189 32.1307 8.85189C32.0922 8.85189 31.9911 8.82623 31.9092 8.79202C31.6299 8.68511 30.7052 8.52689 30.6233 8.57393C30.5992 8.58676 30.6666 8.67228 30.7726 8.75781C30.8785 8.84334 31.0327 8.96735 31.1097 9.03577C31.1868 9.09992 31.2638 9.15123 31.2735 9.15123C31.2879 9.15123 31.3361 9.18545 31.3842 9.22393C31.4709 9.29663 31.6684 9.4463 32.0681 9.73282C32.1596 9.80124 32.2656 9.88249 32.2993 9.90815C32.333 9.93808 32.3812 9.96374 32.3956 9.96374C32.4149 9.96374 32.5353 10.045 32.6557 10.1433C32.7809 10.246 32.9543 10.3743 33.041 10.4341C33.1277 10.494 33.277 10.6095 33.3781 10.6907C33.4744 10.772 33.7441 10.9943 33.9753 11.1825C34.6255 11.7128 34.8085 11.8967 35.3816 12.5723C35.6128 12.8417 35.8103 13.0726 35.8247 13.0855C35.8392 13.0983 35.9885 13.3078 36.157 13.5516C36.576 14.1588 36.6435 14.3213 36.7976 15.0868L36.8602 15.399L37.2695 15.3733C37.4959 15.3605 38.0353 15.322 38.4736 15.2878C40.5638 15.1253 41.5029 15.0697 44.6382 14.9414C46.5213 14.8644 51.2508 14.873 52.922 14.9628C55.0122 15.074 57.8296 15.2621 59.1251 15.3776C60.0691 15.4588 60.1943 15.4588 60.1943 15.3562C60.1943 15.3092 60.2136 15.2621 60.2377 15.2493C60.2569 15.2365 60.2907 15.1381 60.3051 15.0312C60.3244 14.9286 60.3581 14.8046 60.3822 14.7661C60.4062 14.7233 60.5604 14.4496 60.7241 14.1546C61.1094 13.4575 61.1527 13.3934 61.6729 12.7647C61.697 12.7391 61.7885 12.6236 61.8752 12.5082C61.9667 12.3884 62.0582 12.2858 62.0726 12.273C62.0871 12.2601 62.2075 12.1276 62.3375 11.9736C62.6698 11.5845 62.7372 11.5203 63.0358 11.2638C63.6138 10.772 63.8498 10.5881 64.2158 10.3272C64.3507 10.2332 64.4807 10.1348 64.5048 10.1091C64.5337 10.0835 64.6493 9.99795 64.7697 9.9167C64.8852 9.83545 65.0442 9.71999 65.1212 9.65157C65.1935 9.58742 65.2705 9.53611 65.2898 9.53611C65.3091 9.53611 65.4295 9.45058 65.5595 9.34367C65.6895 9.23676 65.8099 9.15123 65.8292 9.15123C65.8437 9.15123 65.9978 9.03577 66.1663 8.89465C66.3397 8.75781 66.4938 8.64235 66.5179 8.63807C66.5372 8.63807 66.5516 8.61669 66.5516 8.59103C66.5516 8.52689 65.9544 8.57393 65.6125 8.66373C65.102 8.7963 65.0249 8.82196 64.7215 8.95025C64.0376 9.23676 63.609 9.57887 63.3874 10.0151C63.2815 10.2246 63.2285 10.1776 63.1611 9.81407C63.1177 9.55749 63.0262 9.25387 62.9588 9.1213C62.9203 9.0486 62.8914 8.96735 62.8914 8.93742C62.8914 8.83478 62.4916 8.35583 62.3231 8.2532C62.2267 8.19333 62.1352 8.13346 62.1208 8.12063C62.0726 8.06504 61.7018 8.04366 61.538 8.08215C61.4417 8.10781 61.2876 8.19761 61.1865 8.28314C60.9312 8.50978 60.8204 8.76209 60.8204 9.10419C60.8252 9.4292 60.9023 9.54894 61.1431 9.59597C61.2731 9.62163 61.302 9.6088 61.3791 9.49762C61.5236 9.27953 61.7837 9.24531 62.0726 9.39926C62.4579 9.61308 62.7132 10.1262 62.5542 10.3871C62.482 10.5111 62.2845 10.5582 61.6006 10.6223C61.2442 10.6522 60.9312 10.7035 60.9023 10.7292C60.8204 10.8019 61.0709 11.0072 61.408 11.1397C61.6392 11.2338 61.7451 11.2509 61.9089 11.2295C62.1063 11.2082 62.1208 11.2124 62.1208 11.3065C62.1208 11.4562 61.9956 11.6443 61.8222 11.7555C61.7355 11.8154 61.6295 11.8838 61.591 11.918C61.3309 12.1318 60.4833 12.5253 60.098 12.6151C59.9776 12.6407 59.8139 12.6835 59.7272 12.7049C59.4864 12.769 58.3642 12.6536 58.3642 12.5638C58.3642 12.5467 58.3257 12.5295 58.2775 12.5295C58.1764 12.5295 57.7044 12.2858 57.5647 12.1618C57.4106 12.0249 57.1794 11.747 57.0687 11.5759C56.9772 11.4305 56.9194 11.2937 56.7219 10.742C56.6256 10.4812 56.5052 9.68578 56.457 8.99301L56.4233 8.55255L56.6352 8.35156C56.876 8.11636 56.9194 8.0907 56.9194 8.18478C56.9194 8.44991 57.6803 9.0486 57.8392 8.90748C57.8922 8.86044 57.8489 8.60814 57.714 8.21044C57.5936 7.8555 57.5503 7.64168 57.5744 7.5476C57.6321 7.33806 58.0271 7.22688 58.4846 7.29102C58.6628 7.31241 58.7543 7.35944 58.9229 7.50912C59.1589 7.71438 59.1829 7.81701 59.0385 7.99662C58.7784 8.32162 59.3611 8.53116 59.8042 8.27031C60.0932 8.10353 60.1317 8.06932 60.2858 7.81274C60.8252 6.92326 59.7994 6.37161 58.1667 6.67523C57.9019 6.72227 57.6659 6.75648 57.6418 6.74793C57.6129 6.73937 57.6659 6.6624 57.7526 6.57687C57.9548 6.37161 58.1764 5.98246 58.2293 5.73016C58.369 5.04166 58.3786 4.91337 58.292 4.40876C58.1908 3.81863 58.1378 3.60481 58.0752 3.5706C58.0078 3.53639 57.7718 3.69889 57.3865 4.041C57.0494 4.34462 56.8182 4.58837 56.7604 4.70383C56.7412 4.73804 56.6737 4.84495 56.6063 4.93903C56.5389 5.03311 56.4618 5.15713 56.4329 5.21699C56.404 5.27686 56.3559 5.36239 56.327 5.40943C56.2981 5.45647 56.2692 5.69167 56.2547 5.93114C56.2355 6.3545 56.2018 6.44431 56.1151 6.31174C56.0139 6.14924 55.3686 5.53772 55.1856 5.43081C55.1278 5.3966 55.0459 5.34101 55.0122 5.31107C54.8725 5.19134 54.4102 5.04594 54.1694 5.04594C53.89 5.04594 53.7263 5.11009 53.524 5.30252C53.3795 5.43509 53.3795 5.44364 53.3795 5.90976C53.3795 6.25187 53.3988 6.39299 53.4421 6.40582C53.471 6.41437 53.4999 6.44858 53.4999 6.47852C53.4999 6.58543 53.7359 6.75648 53.8852 6.75648C54.1164 6.75648 54.1742 6.71799 54.1742 6.55549C54.1742 6.3545 54.4053 6.15779 54.6365 6.15779C54.8821 6.15779 55.2915 6.31174 55.4601 6.46569C55.6383 6.63674 55.7731 6.93181 55.6816 6.95747C55.6479 6.9703 55.619 7.00023 55.619 7.02589C55.619 7.07721 55.2819 7.35089 55.2193 7.35517C55.1807 7.35517 54.964 7.48774 54.781 7.6203C54.7232 7.65879 54.6317 7.72721 54.5691 7.76997C54.4005 7.88971 54.4728 7.97952 54.7617 8.01373C55.0796 8.05221 55.4167 8.00517 55.5853 7.89826C55.7539 7.79563 55.7924 7.82984 55.8261 8.11208C55.8502 8.30452 55.8405 8.34728 55.7346 8.44564C55.672 8.50551 55.619 8.56538 55.619 8.57393C55.619 8.62952 54.6173 9.54466 54.2898 9.78413C54.1886 9.85683 53.8948 10.0108 53.6444 10.1262C53.1965 10.323 53.1772 10.3272 52.7293 10.3272C52.2862 10.3272 52.2573 10.323 51.8769 10.1476C51.4434 9.94664 51.3375 9.88249 50.9425 9.53611C50.5139 9.15979 50.2779 8.84761 49.7963 8.018C49.7144 7.87688 49.647 7.74859 49.647 7.72721C49.647 7.70583 49.6181 7.62885 49.5796 7.55616C49.541 7.47918 49.464 7.27392 49.4062 7.09859C49.3532 6.92326 49.2858 6.74793 49.2665 6.71372C49.228 6.64529 49.0257 5.97818 48.915 5.53772C48.8572 5.32818 48.8572 5.25976 48.9053 5.17423C48.939 5.11436 48.9968 5.00318 49.0305 4.9262C49.0883 4.79791 49.2136 4.73377 49.2136 4.8364C49.2136 4.90482 49.4592 5.10581 49.647 5.19134C49.8878 5.29825 50.2635 5.33246 50.2972 5.25121C50.3357 5.16568 50.196 4.88772 50.0516 4.76798C49.9552 4.68673 49.6615 4.29758 49.5748 4.13936C49.4977 3.98968 49.4977 3.97685 49.5796 3.85284C49.6277 3.78014 49.6855 3.72027 49.7 3.72027C49.7192 3.72027 49.7674 3.69461 49.8059 3.6604C49.8878 3.58343 50.2876 3.46369 50.4465 3.46369C50.6102 3.46369 50.8944 3.58343 51.0341 3.70744C51.1545 3.82291 51.1689 3.93837 51.0822 4.06238C51.0341 4.12653 51.0389 4.15646 51.1111 4.22488C51.4579 4.57127 52.1418 4.05383 52.2285 3.38244C52.2525 3.1729 52.2429 3.1002 52.1562 2.94198C52.0984 2.84362 51.9684 2.71105 51.8721 2.65119C51.7131 2.55711 51.6409 2.54428 51.2556 2.54428C51.0148 2.54428 50.7643 2.56566 50.7017 2.59132C50.0275 2.87356 49.5218 3.10876 49.4158 3.19428C49.3821 3.22422 49.3147 3.24987 49.2713 3.2456C49.2184 3.2456 49.2136 3.23705 49.2521 3.21994C49.281 3.21139 49.3099 3.1729 49.3099 3.14297C49.3099 3.10876 49.3436 2.99329 49.3869 2.88211C49.4688 2.65974 49.4881 1.88144 49.4158 1.6548C49.2617 1.19295 49.1847 1.00907 49.0016 0.684066C48.7079 0.158075 48.5923 -0.000149643 48.52 -0.000149643C48.5056 -0.000149643 48.4189 0.102483 48.3226 0.22222Z" fill="black"/>
<path d="M45.8903 15.3563C43.6556 15.4247 40.6889 15.6043 37.9196 15.8481C37.5247 15.8823 37.1201 15.9122 37.0286 15.9208C36.8986 15.9293 36.86 15.9507 36.8359 16.0362C36.8167 16.1089 36.7974 16.126 36.7685 16.0875C36.7107 16.002 36.6433 16.0277 36.6433 16.1389C36.6433 16.2714 36.5373 16.3441 36.388 16.3142C36.2291 16.2757 36.1713 16.3655 36.3014 16.4467C36.4266 16.5237 36.4314 16.6135 36.3158 16.6862C36.1521 16.7931 36.1617 16.8316 36.3591 16.8145C36.4844 16.8017 36.5518 16.8145 36.5662 16.853C36.6481 17.0968 36.6433 17.0925 36.7444 16.9813L36.8359 16.8829V17.0625C36.8359 17.2422 36.8359 17.2422 36.9901 17.2165C37.0719 17.2037 37.2935 17.178 37.4813 17.1695C37.6691 17.1566 38.1074 17.1181 38.4493 17.0839C44.3732 16.5023 48.9967 16.3869 53.8369 16.7033C55.378 16.8017 57.4249 16.9642 58.6289 17.0839C58.9757 17.1181 59.4188 17.1566 59.6162 17.1695C59.8137 17.1866 60.0256 17.2079 60.0882 17.2208C60.1845 17.2422 60.1942 17.225 60.1942 17.0882C60.1942 17.0027 60.2183 16.9343 60.2423 16.9343C60.2712 16.9343 60.2905 16.9514 60.2905 16.9685C60.2905 16.9898 60.3194 17.0412 60.3579 17.0839C60.4205 17.1609 60.4254 17.1566 60.5024 17.0241C60.5602 16.93 60.6084 16.8915 60.6613 16.9086C60.6999 16.9214 60.7866 16.9471 60.854 16.9599L60.9792 16.9898L60.8877 16.853L60.7962 16.7119L60.931 16.6093L61.0659 16.5109L60.931 16.481C60.6854 16.4339 60.6758 16.4254 60.6758 16.2714V16.1175L60.5265 16.2116C60.3338 16.3313 60.2231 16.28 60.2038 16.0619C60.1894 15.9122 60.1845 15.9079 59.9871 15.9079C59.8763 15.9079 59.491 15.8823 59.1346 15.8481C58.7782 15.8139 58.0943 15.754 57.6175 15.7198C52.7581 15.352 49.4446 15.2494 45.8903 15.3563Z" fill="black"/>
<path d="M115.166 46.8098V46.4624L115.86 46.1845C116.323 46.0224 116.625 45.8024 116.763 45.5245C116.926 45.2466 117.007 44.8761 117.007 44.413V26.2802C117.007 25.817 116.937 25.4465 116.798 25.1686C116.659 24.8907 116.347 24.6707 115.86 24.5086L115.166 24.2307V23.8833H124.093V24.2307L123.398 24.5086C122.935 24.6707 122.622 24.8907 122.46 25.1686C122.321 25.4465 122.252 25.817 122.252 26.2802V44.413C122.252 44.8761 122.321 45.2466 122.46 45.5245C122.622 45.7793 122.935 45.9993 123.398 46.1845L124.093 46.4624V46.8098H115.166ZM125.544 46.8098V46.4624L126.031 46.3235C126.841 46.0919 127.247 45.5245 127.247 44.6214V33.7487C127.247 33.2392 127.165 32.8687 127.003 32.6371C126.841 32.3823 126.529 32.2086 126.065 32.116L125.544 31.9771V31.6297L131.484 29.6149L131.832 29.9623L132.11 32.0465C132.92 31.3286 133.835 30.7381 134.854 30.2749C135.873 29.8118 136.88 29.5802 137.876 29.5802C139.404 29.5802 140.574 29.9971 141.385 30.8307C142.218 31.6644 142.635 32.9381 142.635 34.6518V44.6561C142.635 45.5593 143.075 46.1267 143.955 46.3582L144.268 46.4624V46.8098H136.07V46.4624L136.521 46.3235C137.332 46.0688 137.737 45.5014 137.737 44.6214V33.5402C137.737 32.0581 136.996 31.3171 135.514 31.3171C134.495 31.3171 133.383 31.8265 132.179 32.8455V44.6561C132.179 45.5593 132.584 46.1267 133.395 46.3582L133.708 46.4624V46.8098H125.544ZM152.356 46.914L146.208 32.1508C145.884 31.3634 145.328 30.8423 144.54 30.5876L144.054 30.4486V30.1013H153.051V30.4486L152.426 30.5876C151.523 30.8192 151.245 31.4213 151.592 32.3939L155.239 42.0856L158.644 32.4634C158.829 32.0002 158.875 31.6181 158.783 31.3171C158.69 31.016 158.412 30.796 157.949 30.6571L157.081 30.4486V30.1013H162.117V30.4486L161.11 30.6918C160.67 30.8076 160.323 30.9813 160.068 31.2128C159.836 31.4444 159.639 31.7918 159.477 32.255L154.371 46.914H152.356ZM170.798 29.5802C172.304 29.5802 173.589 29.8928 174.654 30.5181C175.72 31.1202 176.53 31.9539 177.086 33.0192C177.665 34.0613 177.954 35.2539 177.954 36.5971C177.954 36.8518 177.943 37.1182 177.92 37.3961C177.896 37.6508 177.85 37.8824 177.781 38.0908H167.429C167.452 40.5919 167.892 42.3982 168.749 43.5098C169.629 44.5982 170.926 45.1424 172.639 45.1424C173.797 45.1424 174.735 44.9572 175.453 44.5866C176.171 44.2161 176.843 43.6719 177.468 42.954L177.815 43.2666C177.097 44.5403 176.136 45.5361 174.932 46.254C173.751 46.9719 172.327 47.3309 170.659 47.3309C169.015 47.3309 167.556 46.9835 166.283 46.2888C165.009 45.5709 164.013 44.5519 163.295 43.2319C162.577 41.9119 162.218 40.3371 162.218 38.5076C162.218 36.6087 162.635 34.9992 163.469 33.6792C164.303 32.336 165.368 31.3171 166.665 30.6223C167.985 29.9276 169.363 29.5802 170.798 29.5802ZM170.694 30.2749C170.023 30.2749 169.444 30.4834 168.957 30.9002C168.494 31.2939 168.124 32.0118 167.846 33.0539C167.591 34.0729 167.452 35.5203 167.429 37.3961H173.369C173.601 34.8718 173.508 33.0539 173.091 31.9423C172.674 30.8307 171.875 30.2749 170.694 30.2749ZM179.685 46.8098V46.4624L180.172 46.3235C180.982 46.0919 181.388 45.5245 181.388 44.6214V33.7487C181.388 33.2392 181.306 32.8687 181.144 32.6371C180.982 32.3823 180.67 32.2086 180.206 32.116L179.685 31.9771V31.6297L185.625 29.6149L185.973 29.9623L186.251 32.0465C187.061 31.3286 187.976 30.7381 188.995 30.2749C190.014 29.8118 191.021 29.5802 192.017 29.5802C193.546 29.5802 194.715 29.9971 195.526 30.8307C196.359 31.6644 196.776 32.9381 196.776 34.6518V44.6561C196.776 45.5593 197.216 46.1267 198.096 46.3582L198.409 46.4624V46.8098H190.211V46.4624L190.662 46.3235C191.473 46.0688 191.878 45.5014 191.878 44.6214V33.5402C191.878 32.0581 191.137 31.3171 189.655 31.3171C188.636 31.3171 187.524 31.8265 186.32 32.8455V44.6561C186.32 45.5593 186.725 46.1267 187.536 46.3582L187.849 46.4624V46.8098H179.685ZM206.198 47.3309C204.716 47.3309 203.558 46.9603 202.725 46.2193C201.914 45.4782 201.509 44.2972 201.509 42.6761V30.796H199.112V30.4486L199.946 30.3097C200.663 30.1476 201.277 29.916 201.787 29.6149C202.319 29.3139 202.84 28.9086 203.35 28.3991L206.198 25.2381H206.546L206.441 30.1013H210.332V30.796H206.407V43.3014C206.407 44.1119 206.58 44.7256 206.928 45.1424C207.298 45.5593 207.761 45.7677 208.317 45.7677C208.804 45.7677 209.232 45.6519 209.603 45.4203C209.973 45.1656 210.344 44.8298 210.714 44.413L211.061 44.7603C210.598 45.5477 209.961 46.173 209.151 46.6361C208.34 47.0993 207.356 47.3309 206.198 47.3309ZM220.836 47.3309C219.076 47.3309 217.548 46.9719 216.251 46.254C214.954 45.513 213.947 44.4708 213.229 43.1277C212.534 41.7845 212.187 40.2098 212.187 38.4034C212.187 36.5971 212.557 35.0339 213.298 33.7139C214.063 32.3939 215.093 31.375 216.39 30.6571C217.71 29.9392 219.192 29.5802 220.836 29.5802C222.481 29.5802 223.951 29.9392 225.248 30.6571C226.545 31.3518 227.564 32.3592 228.305 33.6792C229.069 34.9992 229.451 36.5739 229.451 38.4034C229.451 40.2329 229.092 41.8192 228.374 43.1624C227.68 44.4824 226.684 45.513 225.387 46.254C224.113 46.9719 222.596 47.3309 220.836 47.3309ZM220.836 46.6361C221.647 46.6361 222.295 46.4045 222.782 45.9414C223.268 45.4782 223.615 44.6561 223.824 43.4751C224.055 42.294 224.171 40.6266 224.171 38.4729C224.171 36.296 224.055 34.6171 223.824 33.436C223.615 32.255 223.268 31.4329 222.782 30.9697C222.295 30.5065 221.647 30.2749 220.836 30.2749C220.026 30.2749 219.366 30.5065 218.856 30.9697C218.37 31.4329 218.011 32.255 217.78 33.436C217.571 34.6171 217.467 36.296 217.467 38.4729C217.467 40.6266 217.571 42.294 217.78 43.4751C218.011 44.6561 218.37 45.4782 218.856 45.9414C219.366 46.4045 220.026 46.6361 220.836 46.6361ZM230.977 46.8098V46.4624L231.498 46.3235C231.961 46.1845 232.274 45.9761 232.436 45.6982C232.621 45.4203 232.714 45.0614 232.714 44.6214V33.7487C232.714 33.2392 232.621 32.8687 232.436 32.6371C232.274 32.3823 231.961 32.2086 231.498 32.116L230.977 31.9771V31.6297L236.952 29.6149L237.299 29.9623L237.612 32.9497V33.2276C237.936 32.5792 238.353 31.9886 238.862 31.456C239.395 30.9002 239.974 30.4486 240.599 30.1013C241.248 29.7539 241.884 29.5802 242.51 29.5802C243.39 29.5802 244.061 29.8234 244.524 30.3097C244.988 30.796 245.219 31.4097 245.219 32.1508C245.219 32.9381 244.988 33.5518 244.524 33.9918C244.084 34.4087 243.552 34.6171 242.927 34.6171C241.954 34.6171 241.097 34.1308 240.356 33.1581L240.287 33.0887C240.055 32.7644 239.789 32.5908 239.488 32.5676C239.186 32.5213 238.909 32.6602 238.654 32.9844C238.422 33.1929 238.225 33.4476 238.063 33.7487C237.924 34.0266 237.785 34.3508 237.646 34.7213V44.413C237.646 45.3393 238.052 45.9182 238.862 46.1498L239.974 46.4624V46.8098H230.977ZM250.479 27.7739C249.691 27.7739 249.02 27.5307 248.464 27.0444C247.931 26.5349 247.665 25.8981 247.665 25.1339C247.665 24.3465 247.931 23.7096 248.464 23.2233C249.02 22.737 249.691 22.4938 250.479 22.4938C251.266 22.4938 251.926 22.737 252.459 23.2233C252.991 23.7096 253.258 24.3465 253.258 25.1339C253.258 25.8981 252.991 26.5349 252.459 27.0444C251.926 27.5307 251.266 27.7739 250.479 27.7739ZM246.38 46.8098V46.4624L246.866 46.3235C247.329 46.1845 247.642 45.9761 247.804 45.6982C247.989 45.4203 248.082 45.0498 248.082 44.5866V33.7139C248.082 33.2276 247.989 32.8687 247.804 32.6371C247.642 32.3823 247.329 32.2086 246.866 32.116L246.38 32.0118V31.6644L252.736 29.6149L253.084 29.9623L252.98 34.895V44.6214C252.98 45.0845 253.061 45.4551 253.223 45.733C253.408 46.0109 253.721 46.2193 254.161 46.3582L254.508 46.4624V46.8098H246.38Z" fill="black"/>
</svg>
